<svg width="574" height="500" viewBox="0 0 574 500" fill="none" xmlns="http://www.w3.org/2000/svg">
<path d="M268.486 491.535C268.69 491.544 268.893 491.491 269.066 491.381C269.239 491.271 269.374 491.111 269.453 490.922C269.533 490.733 269.552 490.524 269.508 490.324C269.464 490.124 269.36 489.942 269.21 489.803L269.141 489.531L269.169 489.465C269.375 488.978 269.72 488.563 270.162 488.272C270.603 487.98 271.121 487.826 271.65 487.828C272.179 487.83 272.695 487.988 273.135 488.283C273.574 488.577 273.917 488.995 274.119 489.484C274.929 491.434 275.96 493.387 276.213 495.449C276.325 496.36 276.278 497.284 276.074 498.18C277.976 494.031 278.963 489.523 278.97 484.959C278.97 483.814 278.906 482.67 278.779 481.532C278.674 480.599 278.528 479.672 278.341 478.753C277.322 473.763 275.133 469.085 271.955 465.105C270.417 464.266 269.173 462.976 268.391 461.408C268.108 460.844 267.908 460.242 267.797 459.621C268.134 458.732 268.311 457.79 268.32 456.84C268.562 456.473 268.995 456.29 269.259 455.932C270.572 454.152 272.382 454.462 273.326 456.882C275.344 457.901 275.364 459.59 274.126 461.214C273.338 462.248 273.23 463.646 272.539 464.753C272.61 464.844 272.684 464.932 272.755 465.023C274.055 466.694 275.188 468.489 276.137 470.382C275.906 468.262 276.182 466.117 276.942 464.124C277.711 462.267 279.155 460.703 280.425 459.097C280.761 458.666 281.218 458.344 281.737 458.172C282.256 458 282.814 457.986 283.341 458.131C283.869 458.276 284.341 458.575 284.698 458.988C285.056 459.402 285.283 459.912 285.351 460.455L285.358 460.526C285.169 460.632 284.985 460.745 284.804 460.865C284.577 461.017 284.401 461.233 284.299 461.487C284.197 461.74 284.174 462.019 284.234 462.285C284.293 462.552 284.431 462.795 284.63 462.981C284.829 463.168 285.08 463.29 285.35 463.332L285.378 463.336C285.311 464.016 285.192 464.691 285.023 465.353C286.653 471.657 283.133 473.953 278.108 474.057C277.997 474.113 277.889 474.17 277.778 474.224C278.732 476.929 279.331 479.745 279.558 482.604C279.687 484.29 279.68 485.984 279.536 487.67L279.544 487.61C279.908 485.736 280.908 484.045 282.374 482.823C284.552 481.034 287.629 480.375 289.979 478.937C290.229 478.777 290.519 478.691 290.816 478.69C291.113 478.69 291.403 478.774 291.654 478.933C291.904 479.092 292.104 479.319 292.23 479.588C292.355 479.857 292.401 480.156 292.362 480.45L292.352 480.513C292.002 480.656 291.661 480.82 291.331 481.005C291.143 481.112 290.958 481.225 290.777 481.344C290.55 481.496 290.374 481.713 290.272 481.966C290.17 482.22 290.148 482.498 290.207 482.765C290.266 483.031 290.404 483.274 290.603 483.461C290.803 483.648 291.054 483.77 291.324 483.811L291.351 483.816L291.408 483.824C290.81 485.253 289.97 486.568 288.925 487.712C287.906 493.216 283.528 493.738 278.845 492.135H278.842C278.328 494.368 277.583 496.542 276.62 498.621H268.684C268.656 498.532 268.63 498.441 268.605 498.353C269.339 498.399 270.077 498.355 270.801 498.222C270.212 497.5 269.623 496.772 269.034 496.049C269.021 496.036 269.009 496.022 268.997 496.007C268.699 495.637 268.397 495.27 268.098 494.9L268.098 494.9C268.082 493.766 268.212 492.635 268.485 491.535L268.486 491.535Z" fill="#F2F2F2"/>
<path d="M70.7587 491.535C70.554 491.544 70.3514 491.491 70.1782 491.381C70.0051 491.271 69.8698 491.111 69.7908 490.922C69.7117 490.733 69.6927 490.524 69.7363 490.324C69.7799 490.124 69.8839 489.942 70.0344 489.803L70.1029 489.531L70.0757 489.465C69.8695 488.978 69.5239 488.563 69.0824 488.272C68.641 487.98 68.1232 487.826 67.5943 487.828C67.0654 487.83 66.5488 487.988 66.1095 488.283C65.6702 488.577 65.3278 488.995 65.1252 489.484C64.3155 491.434 63.2846 493.387 63.0308 495.449C62.919 496.36 62.9662 497.284 63.1702 498.18C61.2685 494.031 60.281 489.523 60.2746 484.959C60.2742 483.814 60.3378 482.67 60.4652 481.532C60.5705 480.599 60.7165 479.672 60.9033 478.753C61.9225 473.763 64.111 469.085 67.2889 465.105C68.8269 464.266 70.0708 462.976 70.8528 461.408C71.1361 460.844 71.3364 460.242 71.4473 459.621C71.1103 458.732 70.9331 457.79 70.924 456.84C70.6822 456.473 70.2494 456.29 69.9853 455.932C68.6719 454.152 66.8625 454.462 65.9178 456.882C63.8999 457.901 63.8804 459.59 65.1186 461.214C65.9063 462.248 66.0146 463.646 66.7058 464.753C66.6346 464.844 66.5607 464.932 66.4896 465.023C65.1897 466.694 64.0567 468.489 63.107 470.382C63.3379 468.262 63.0623 466.117 62.3026 464.124C61.5328 462.267 60.0898 460.703 58.819 459.097C58.4829 458.666 58.0265 458.344 57.5074 458.172C56.9884 458 56.43 457.986 55.9029 458.131C55.3758 458.276 54.9036 458.575 54.5459 458.988C54.1883 459.402 53.9614 459.912 53.8938 460.455L53.8862 460.526C54.0749 460.632 54.2597 460.745 54.4404 460.865C54.6675 461.017 54.8435 461.233 54.9453 461.487C55.047 461.74 55.0699 462.019 55.0108 462.285C54.9517 462.552 54.8135 462.795 54.6142 462.981C54.4149 463.168 54.1638 463.29 53.8939 463.332L53.8663 463.336C53.9335 464.016 54.0524 464.691 54.2218 465.353C52.5916 471.657 56.1111 473.953 61.1365 474.057C61.2474 474.113 61.3555 474.17 61.4664 474.224C60.5122 476.929 59.9137 479.745 59.6858 482.604C59.5569 484.29 59.5645 485.984 59.7086 487.67L59.7001 487.61C59.336 485.736 58.3363 484.045 56.8699 482.823C54.6919 481.034 51.6149 480.375 49.2653 478.937C49.0156 478.777 48.7252 478.691 48.4285 478.69C48.1317 478.69 47.841 478.774 47.5905 478.933C47.34 479.092 47.1402 479.319 47.0148 479.588C46.8893 479.857 46.8433 480.156 46.8823 480.45L46.8919 480.513C47.2422 480.656 47.5832 480.82 47.913 481.005C48.1018 481.112 48.2865 481.225 48.4673 481.344C48.6944 481.496 48.8703 481.713 48.9721 481.966C49.0739 482.22 49.0967 482.498 49.0377 482.765C48.9786 483.031 48.8403 483.274 48.641 483.461C48.4417 483.647 48.1907 483.77 47.9207 483.811L47.8931 483.816L47.8362 483.824C48.4347 485.253 49.2747 486.568 50.3193 487.712C51.3387 493.216 55.7167 493.738 60.3998 492.135H60.4027C60.9165 494.368 61.661 496.542 62.6241 498.621H70.5599C70.5883 498.532 70.6139 498.441 70.6396 498.353C69.905 498.399 69.1676 498.355 68.4437 498.222C69.0325 497.5 69.6213 496.772 70.2101 496.049C70.2232 496.036 70.2356 496.022 70.247 496.007C70.5457 495.637 70.8472 495.27 71.1459 494.9L71.146 494.9C71.1619 493.766 71.0319 492.635 70.7591 491.535L70.7587 491.535Z" fill="#F2F2F2"/>
<path d="M190.696 65.125C192.301 61.8925 194.867 59.2087 196.437 55.9585C198.007 52.7084 198.312 48.3584 195.697 45.8707C193.476 43.7584 189.998 43.7288 187.343 42.1989C180.578 38.3009 180.586 25.9202 172.852 24.8504C169.091 24.3302 165.688 27.1506 163.415 30.1915C161.142 33.2325 159.33 36.781 156.178 38.8967C152.609 41.2917 147.995 41.3958 144.033 43.0594C136.435 46.2488 132.451 54.4503 129.121 61.9874C126.975 66.8428 124.78 72.0799 125.776 77.2941C123.612 78.6406 124.576 82.262 126.736 83.6147C128.896 84.9674 131.609 84.9373 134.089 85.5233C139.302 86.7547 143.57 90.9044 145.594 95.8639C147.171 99.7294 147.494 103.974 147.798 108.137C148.326 115.362 148.854 122.587 149.382 129.812C149.617 133.026 149.925 136.442 151.882 139.004C153.838 141.565 158.075 142.638 160.274 140.282C162.376 138.031 161.43 134.466 161.387 131.386C161.345 128.307 164.129 124.472 166.754 126.083L167.679 123.982C173.675 121.835 178.926 118.006 182.802 112.953C186.678 107.899 189.016 101.836 189.536 95.4883C190.206 85.2641 186.138 74.3015 190.696 65.125Z" fill="#E6E6E6"/>
<path d="M196.823 129.958C197.402 129.412 197.813 128.712 198.007 127.94C198.201 127.168 198.171 126.357 197.919 125.602C197.668 124.847 197.205 124.18 196.587 123.679C195.969 123.178 195.22 122.864 194.429 122.775L194.439 123.122C193.31 123.781 192.023 124.119 190.717 124.1C189.415 124.08 188.119 124.285 186.887 124.707C186.274 124.93 185.744 125.333 185.365 125.863C184.985 126.393 184.776 127.025 184.763 127.677C184.834 128.176 185.025 128.651 185.32 129.061C185.614 129.471 186.003 129.804 186.453 130.031C187.358 130.477 188.329 130.772 189.328 130.904C191.903 131.388 194.916 131.755 196.823 129.958Z" fill="#E6E6E6"/>
<path d="M247.036 65.2962C248.114 64.5627 249.03 63.6146 249.725 62.5111C250.062 61.9528 250.222 61.3057 250.185 60.6546C250.147 60.0035 249.914 59.379 249.515 58.863C248.703 58.1586 247.659 57.7811 246.584 57.804C243.666 57.5861 240.733 57.932 237.945 58.8227C240.807 61.3586 243.67 63.8946 246.532 66.4305L247.036 65.2962Z" fill="#E6E6E6"/>
<path d="M232.721 71.8917C233.878 73.1686 233.509 75.1494 233.182 76.8412C232.854 78.5329 232.813 80.6469 234.268 81.5698C235.529 82.3698 237.299 81.717 238.221 80.5424C239.046 79.2897 239.548 77.8527 239.684 76.359C240.137 74.1882 240.342 71.9729 240.294 69.7558C240.24 67.522 239.452 65.3684 238.052 63.6268C237.058 62.4942 235.735 61.7009 234.268 61.3582C232.801 61.0154 231.264 61.1404 229.871 61.7156L231.201 61.65C230.234 62.8913 229.501 64.298 229.038 65.8015C228.816 66.5569 228.8 67.3579 228.992 68.1213C229.184 68.8848 229.578 69.5828 230.131 70.143C230.92 70.8295 232.019 71.1166 232.721 71.8917Z" fill="#E6E6E6"/>
<path d="M297.971 50.4747L298.207 49.7466C297.219 50.3187 296.456 51.213 296.048 52.28C295.64 53.347 295.611 54.5218 295.965 55.6078C296.726 55.0079 297.313 54.216 297.665 53.3137C298.018 52.4114 298.124 51.4314 297.971 50.4747Z" fill="#E6E6E6"/>
<path d="M285.117 60.8971C286.377 60.1841 287.451 59.186 288.255 57.9828C289.059 56.7796 289.57 55.4048 289.746 53.9687C289.883 53.0757 289.779 52.1625 289.447 51.3226C289.276 50.9057 289.005 50.5374 288.657 50.2505C288.31 49.9636 287.897 49.767 287.455 49.6782L286.917 50.5258C286.144 49.8612 284.847 50.5447 284.522 51.5106C284.313 52.5134 284.4 53.5556 284.773 54.5097C285.145 55.4696 285.128 56.5369 284.726 57.4845C284.292 58.0418 283.803 58.5547 283.268 59.0158C283.007 59.2538 282.836 59.5752 282.785 59.9252C282.734 60.2752 282.807 60.632 282.99 60.9345C283.497 61.5134 284.445 61.2705 285.117 60.8971Z" fill="#E6E6E6"/>
<path d="M279.637 56.1619C280.098 55.3323 280.316 54.3895 280.264 53.4419L279.087 53.0725C278.334 53.3777 277.666 53.8606 277.141 54.48C276.981 54.64 276.859 54.8333 276.783 55.0461C276.707 55.2589 276.679 55.4859 276.701 55.7108C276.723 55.9357 276.794 56.153 276.91 56.3471C277.025 56.5413 277.182 56.7074 277.37 56.8337C277.557 56.9599 277.77 57.0432 277.994 57.0775C278.217 57.1118 278.445 57.0963 278.662 57.0321C278.878 56.9679 279.078 56.8566 279.247 56.7062C279.416 56.5557 279.549 56.3699 279.637 56.1619Z" fill="#E6E6E6"/>
<path d="M337.202 50.2017C337.309 50.2908 337.415 50.3825 337.521 50.4725C337.615 50.4528 337.704 50.4174 337.8 50.4058L337.202 50.2017Z" fill="#E6E6E6"/>
<path d="M335.315 60.5377C336.396 59.663 337.477 58.7883 338.559 57.9136C339.133 57.5071 339.623 56.9924 340 56.3984C340.258 55.836 340.369 55.2175 340.324 54.6005C340.278 53.9836 340.077 53.3882 339.739 52.8699C339.14 51.9513 338.391 51.1407 337.521 50.4725C336.566 50.6986 335.727 51.2669 335.163 52.07C334.599 52.8732 334.349 53.8552 334.461 54.8302C334.656 56.0704 335.435 57.3967 334.799 58.4793C334.552 58.9009 334.126 59.1879 333.841 59.5848C333.555 59.9817 333.463 60.6139 333.855 60.9058C334.29 61.2299 334.893 60.8791 335.315 60.5377Z" fill="#E6E6E6"/>
<path d="M337.68 65.8923C338.082 65.9139 338.484 65.8487 338.859 65.7012C339.233 65.5538 339.572 65.3274 339.851 65.0376C341.297 63.8532 342.561 62.4639 343.605 60.9137C341.172 61.6844 338.739 62.4551 336.306 63.2257L337.064 64.1127C336.39 64.5524 336.89 65.741 337.68 65.8923Z" fill="#E6E6E6"/>
<path d="M344.499 70.9002C344.647 71.2797 344.916 71.6001 345.264 71.8124C345.611 72.0247 346.019 72.1173 346.425 72.076C346.828 72.0222 347.215 71.8805 347.558 71.661C347.901 71.4414 348.192 71.1493 348.41 70.8052C348.78 70.2599 348.997 69.6256 349.04 68.968C349.082 68.3105 348.948 67.6535 348.652 67.065C348.355 66.4766 347.907 65.978 347.353 65.6209C346.799 65.2638 346.16 65.0611 345.502 65.0338L346.174 66.0601C346.345 67.8119 343.963 69.2236 344.499 70.9002Z" fill="#E6E6E6"/>
<path d="M391.751 90.0864C392.409 90.5774 393.208 90.8417 394.029 90.8398C394.85 90.8378 395.648 90.5697 396.304 90.0755C396.729 89.7124 397.074 89.2654 397.319 88.7625C397.563 88.2597 397.701 87.7117 397.724 87.1531C397.747 86.5945 397.654 86.0371 397.451 85.516C397.249 84.9949 396.941 84.5213 396.546 84.1247L395.304 84.8185C394.615 84.3756 393.781 84.2173 392.977 84.3769C392.173 84.5365 391.463 85.0016 390.996 85.6743C390.576 86.3794 390.422 87.2108 390.56 88.0195C390.699 88.8281 391.121 89.5609 391.751 90.0864Z" fill="#E6E6E6"/>
<path d="M406.2 91.7222C406.805 91.5465 407.355 91.2184 407.797 90.7693C408.239 90.3202 408.559 89.7651 408.725 89.1573L406.309 88.8398C405.637 88.3323 404.855 87.9906 404.026 87.8425C403.61 87.7802 403.186 87.8627 402.824 88.0761C402.462 88.2894 402.184 88.6207 402.037 89.0145C401.985 89.3495 402.021 89.6921 402.139 90.0096C402.258 90.3271 402.456 90.6089 402.714 90.8283C403.17 91.2632 403.73 91.5738 404.34 91.7303C404.951 91.8868 405.591 91.884 406.2 91.7222Z" fill="#E6E6E6"/>
<path d="M396.224 96.5519C396.267 96.9449 396.42 97.3177 396.667 97.6266C396.913 97.9356 397.243 98.168 397.616 98.2967C398.025 98.4904 398.482 98.557 398.929 98.4879C399.375 98.4187 399.791 98.217 400.121 97.9088C400.267 97.7441 400.372 97.547 400.426 97.3339C400.481 97.1208 400.483 96.8977 400.434 96.6833C400.385 96.4689 400.286 96.2692 400.144 96.1009C400.002 95.9327 399.822 95.8007 399.619 95.7159L397.808 95.3864C397.108 95.024 396.213 95.7637 396.224 96.5519Z" fill="#E6E6E6"/>
<path d="M291.108 109.29L289.706 108.01C290.079 108.53 290.557 108.966 291.108 109.29Z" fill="#E6E6E6"/>
<path d="M280.398 101.751C281.262 105.76 285.579 109.025 289.499 107.821L289.706 108.01C288.458 106.302 288.247 103.774 288.538 101.577C289.079 97.8105 290.56 94.2412 292.843 91.1982C295.127 88.1551 298.141 85.7363 301.606 84.1649C302.555 83.8686 303.404 83.3157 304.058 82.5671C304.617 81.7502 304.409 80.3493 303.446 80.1186C302.923 80.0588 302.395 80.181 301.952 80.4645L294.668 84.0497C290.988 85.8605 287.236 87.7231 284.346 90.6325C281.456 93.5418 279.535 97.7419 280.398 101.751Z" fill="#E6E6E6"/>
<path d="M162.812 239.599C156.025 234.74 148.591 230.855 140.727 228.057C135.893 226.339 130.7 225.028 125.663 226.004C122.902 226.575 120.314 227.79 118.109 229.549C115.905 231.309 114.147 233.563 112.978 236.13C111.852 238.715 111.322 241.521 111.428 244.338C111.535 247.156 112.274 249.914 113.592 252.407C115.914 256.759 119.936 260.225 121.281 264.971C122.187 268.171 121.758 271.578 121.321 274.875C120.43 281.612 119.538 288.349 118.646 295.087C117.835 301.221 117.044 307.604 118.986 313.479C120.928 319.354 126.47 324.532 132.626 323.908L133.846 323.817C129.774 321.048 128.632 315.315 129.845 310.542C131.057 305.769 134.135 301.722 137.139 297.82C146.056 286.242 154.972 274.664 163.888 263.086C167.496 258.401 171.312 252.611 169.388 247.021C168.294 243.843 165.544 241.556 162.812 239.599Z" fill="#E6E6E6"/>
<path d="M102.047 210.33C101.144 210.023 100.19 210.704 99.6587 211.496C99.2296 212.346 98.7254 213.157 98.1522 213.917C96.7632 215.349 94.2319 215.065 92.7339 213.747C91.2358 212.43 90.5867 210.393 90.296 208.42C89.9472 206.052 90.0978 203.41 91.6606 201.597C93.2694 199.731 95.9137 199.23 98.3469 198.843C100.86 198.442 103.676 198.108 105.735 199.604C107.032 200.546 107.788 202.067 108.99 203.128C110.191 204.189 112.328 204.592 113.233 203.268C113.469 202.799 113.589 202.279 113.581 201.754C113.574 201.228 113.439 200.712 113.189 200.25C112.681 199.33 112.375 198.311 112.292 197.262C112.353 195.807 113.521 194.651 114.717 193.819C115.912 192.987 117.263 192.27 118.047 191.043C119.012 189.533 118.909 187.589 119.508 185.9C120.956 181.814 126.126 179.996 127.632 175.93C127.995 175.075 128.036 174.117 127.747 173.234C127.117 171.614 125.413 171.932 125.308 169.953C125.208 168.059 126.788 166.202 128.393 165.412C130.605 164.321 133.185 164.41 135.651 164.343C138.116 164.277 140.773 163.949 142.583 162.273C143.168 161.669 143.62 160.949 143.908 160.159C144.196 159.368 144.314 158.526 144.254 157.687C144.194 156.848 143.957 156.031 143.56 155.29C143.162 154.548 142.613 153.899 141.947 153.385C140.599 152.454 138.894 152.13 137.582 151.148C135.948 149.925 135.174 147.888 133.902 146.293C132.843 145.078 131.631 144.005 130.297 143.101C129.205 142.291 128.113 141.481 127.02 140.67C125.046 139.205 122.992 137.703 120.589 137.181C118.187 136.659 115.326 137.397 114.123 139.542C113.648 140.497 113.389 141.545 113.363 142.612C113.254 145.123 113.358 147.639 113.676 150.132C113.875 152.139 114.073 154.146 114.271 156.153C114.449 157.953 114.258 160.325 112.512 160.792C108.637 161.828 109.944 156.099 109.085 154.343C107.77 151.657 101.726 150.367 99.1422 149.247C97.5286 148.548 95.8257 147.776 94.8514 146.312C93.6387 144.49 93.8877 142.01 94.8386 140.038C95.7895 138.067 97.3389 136.463 98.7465 134.786C100.181 133.078 101.488 131.266 102.793 129.457C104.306 127.358 105.82 125.259 107.333 123.16C109.275 120.468 111.315 117.183 110.213 114.053C109.974 113.634 109.616 113.295 109.186 113.078C108.755 112.862 108.27 112.777 107.791 112.835C107.313 112.892 106.862 113.09 106.495 113.403C106.128 113.716 105.861 114.13 105.729 114.593C105.246 116.283 106.535 118.441 105.302 119.693C104.879 120.034 104.35 120.214 103.808 120.204C103.266 120.194 102.744 119.994 102.335 119.638C101.536 118.9 100.927 117.98 100.561 116.956C99.067 113.636 97.6112 110.295 96.0774 106.992C95.5926 105.948 95.0865 104.16 93.6171 104.336C92.3414 104.489 91.6525 106.348 91.6968 107.427C91.7613 108.998 92.6292 110.401 93.2926 111.826C93.9559 113.25 94.4198 114.961 93.6915 116.354C92.7693 118.117 90.4337 118.513 88.4447 118.455C84.6956 118.341 81.0221 117.372 77.705 115.621C77.6184 117.464 77.5317 119.307 77.445 121.149C74.8049 120.044 72.1649 118.939 69.5248 117.834C69.0121 117.62 68.4993 117.405 67.9865 117.19C65.7595 116.258 63.5297 115.325 61.2371 114.568C59.9356 114.139 58.616 113.767 57.2968 113.395C56.4949 113.169 55.693 112.943 54.8911 112.717C53.3087 112.156 51.6304 111.917 49.9543 112.012C48.1935 112.234 46.6228 113.179 44.9943 113.886C41.361 115.464 36.6615 113.877 32.7679 113.849C31.2235 111.594 29.1384 109.763 26.7033 108.522C24.2682 107.281 21.5609 106.67 18.829 106.746C16.097 106.822 13.4277 107.581 11.065 108.955C8.70241 110.329 6.72191 112.273 5.30468 114.61C4.62012 115.794 4.01049 117.019 3.47938 118.28C2.95109 119.464 2.42279 120.648 1.89448 121.832C1.11947 123.568 0.327375 125.398 0.479706 127.294C0.632036 129.19 2.08531 131.126 3.98706 131.109C-0.497418 133.139 -1.43058 140.244 2.37748 143.363C3.43195 144.227 4.725 144.792 5.6739 145.77C6.3911 146.51 6.8709 147.447 7.05176 148.461C7.23261 149.476 7.10625 150.521 6.6889 151.463C6.27155 152.405 5.58224 153.2 4.70945 153.748C3.83666 154.295 2.82021 154.569 1.79053 154.535C4.44729 155.562 7.37371 155.657 10.0918 154.806C12.8098 153.954 15.1588 152.207 16.7551 149.848C18.3832 147.299 19.0908 144.114 21.3056 142.054C24.2387 139.326 29.0835 139.538 32.4665 141.683C35.8494 143.828 37.9895 147.48 39.4616 151.206C41.3907 156.088 42.6253 161.666 46.7351 164.932C48.7223 166.511 51.2389 167.399 52.9954 169.231C55.4967 171.84 55.9295 175.778 55.873 179.392C55.8166 183.007 55.4274 186.756 56.7439 190.123C58.0604 193.489 61.8347 196.258 65.2192 194.989C64.2496 197.865 64.2794 200.985 65.3036 203.842C66.3278 206.7 68.2865 209.128 70.8626 210.734C70.246 206.91 69.6294 203.085 69.0128 199.261C72.086 200.126 74.0779 203.107 75.2283 206.085C76.3786 209.063 76.9865 212.284 78.6539 215.007C81.2796 219.294 86.0344 221.141 90.8713 221.125C96.0966 221.107 98.0804 218.616 101.524 214.947C102.216 214.321 102.741 213.533 103.052 212.653C103.192 212.21 103.168 211.73 102.983 211.304C102.799 210.877 102.466 210.531 102.047 210.33Z" fill="#E6E6E6"/>
<path d="M116.842 210.139C113.922 209.68 111.001 209.221 108.08 208.762C109.612 209.683 111.143 210.603 112.674 211.523C113.95 212.373 115.339 213.042 116.799 213.511C117.531 213.741 118.303 213.819 119.066 213.738C119.83 213.658 120.568 213.421 121.237 213.044L120.863 212.329C120.274 210.84 118.424 210.388 116.842 210.139Z" fill="#E6E6E6"/>
<path d="M114.858 226.374L114.878 226.323C114.701 226.03 114.441 225.797 114.131 225.653C113.821 225.509 113.474 225.461 113.137 225.516C112.464 225.636 111.776 225.647 111.1 225.549C110.67 225.381 110.287 225.113 109.982 224.766C109.678 224.42 109.46 224.006 109.348 223.558C109.058 222.685 108.972 221.75 108.642 220.891C108.403 220.212 107.981 219.612 107.423 219.156C106.865 218.701 106.192 218.409 105.479 218.311C104.763 218.254 104.053 218.481 103.502 218.942C102.952 219.404 102.606 220.064 102.538 220.779C102.595 221.515 102.829 222.227 103.22 222.853C103.535 223.459 103.85 224.065 104.165 224.671C104.431 225.214 104.736 225.737 105.079 226.234C105.637 227.003 106.366 227.63 107.208 228.068C108.051 228.505 108.984 228.74 109.934 228.753C110.883 228.767 111.822 228.559 112.677 228.146C113.532 227.733 114.279 227.126 114.858 226.374V226.374Z" fill="#E6E6E6"/>
<path d="M97.8007 70.9502C100.025 72.2613 102.81 73.1649 103.866 75.5204L104.476 75.7174C103.811 76.5436 103.146 77.3699 102.481 78.1961C101.659 79.2172 100.795 80.3549 100.814 81.6654C100.841 83.4702 102.577 84.8318 104.331 85.2573C106.203 85.6425 108.151 85.3184 109.798 84.348C111.444 83.3775 112.672 81.83 113.241 80.0057C113.45 79.2448 113.536 78.4557 113.719 77.6883C114.252 75.8683 115.057 74.1391 116.106 72.5593C122.012 62.6241 127.917 52.689 133.823 42.7538C134.558 41.5165 135.316 40.0364 134.763 38.7075C134.468 38.1454 134.011 37.6846 133.452 37.3844C132.893 37.0842 132.256 36.9584 131.624 37.0231C130.364 37.1762 129.148 37.5851 128.052 38.2248C127.564 37.3689 126.877 36.6441 126.048 36.1126C125.219 35.581 124.273 35.2587 123.292 35.1732C121.33 35.0218 119.356 35.1937 117.45 35.6819C113.144 36.3317 108.991 37.7582 105.195 39.8921C103.118 40.9421 100.832 42.2387 100.23 44.4867C99.4884 47.2518 101.877 50.0699 104.627 50.8646C107.378 51.6593 110.313 50.9919 113.097 50.323C113.411 51.6724 113.28 53.0874 112.723 54.3559C112.166 55.6245 111.212 56.6783 110.006 57.3594C108.799 58.0405 107.404 58.3122 106.03 58.1338C104.656 57.9554 103.377 57.3365 102.384 56.3699C100.389 54.4271 99.412 51.0544 96.6726 50.553C93.9419 50.0532 91.7713 52.9657 91.1687 55.6756C90.5791 58.5943 90.8989 61.6236 92.0848 64.3549C93.2707 67.0862 95.2657 69.3881 97.8007 70.9502Z" fill="#E6E6E6"/>
<path d="M132.051 118.757C130.736 115.05 129.008 111.503 126.899 108.184C125.3 105.559 123.327 103.181 121.042 101.126C118.954 99.3227 116.553 97.9165 113.959 96.9768C111.441 96.0661 108.637 95.6163 106.091 96.4466C103.546 97.277 101.38 99.644 101.431 102.321C101.489 105.282 104.079 107.597 106.778 108.813C109.478 110.03 112.48 110.559 115.027 112.069C116.759 113.119 118.206 114.579 119.241 116.319C120.277 118.06 120.869 120.028 120.966 122.051L121.607 123.112C120.154 123.593 118.799 124.331 117.606 125.29C117.015 125.778 116.563 126.413 116.296 127.131C116.029 127.849 115.957 128.624 116.086 129.38C116.531 131.172 118.361 132.201 120.016 133.021C123.075 134.535 126.133 136.05 129.191 137.565C127.634 132.921 132.732 128.601 133.014 123.711C133.025 122.012 132.698 120.328 132.051 118.757Z" fill="#E6E6E6"/>
<path d="M55.1528 106.22C57.008 107.661 59.8604 106.987 61.5599 105.366C63.2595 103.744 64.0872 101.437 64.8592 99.2184C64.5772 101.414 64.6039 103.639 64.9385 105.827C65.1127 106.921 65.5123 107.968 66.1118 108.899C66.7113 109.831 67.4978 110.629 68.4214 111.241C69.26 111.701 70.164 112.03 71.1021 112.217C75.4629 113.209 80.0203 112.884 84.1957 111.281L84.2332 109.854C82.1356 110.093 80.5483 107.792 80.4098 105.686C80.2713 103.579 81.0359 101.513 81.1031 99.4031C81.1703 97.293 80.1533 94.8276 78.0758 94.4521C78.4394 95.1824 78.572 96.0061 78.4559 96.8136C78.3399 97.6211 77.9807 98.3741 77.4261 98.9724C76.8715 99.5707 76.1479 99.986 75.3515 100.163C74.5551 100.34 73.7237 100.27 72.968 99.9627C70.5633 98.9851 69.6897 96.0555 67.8313 94.243C66.6831 93.2216 65.2585 92.5624 63.7367 92.3484C62.2149 92.1343 60.6638 92.375 59.2784 93.04C57.9105 93.7379 56.7105 94.7245 55.7613 95.9317C54.8121 97.1388 54.1363 98.5376 53.7806 100.031C53.2162 102.199 53.3837 104.846 55.1528 106.22Z" fill="#E6E6E6"/>
<path d="M112.408 91.1849L112.495 91.0451C111.977 89.5496 110.371 88.6727 108.804 88.4501C107.225 88.3459 105.639 88.3983 104.069 88.6067C102.486 88.8115 100.88 88.4579 99.5291 87.6066C98.4504 86.8003 97.836 85.5316 96.9737 84.4972C96.1114 83.4627 94.7158 82.612 93.4633 83.1067C92.1072 83.6422 91.7454 85.543 92.4035 86.844C93.1787 88.0927 94.3482 89.0472 95.7269 89.5566C100.948 91.9532 106.823 92.5266 112.408 91.1849Z" fill="#E6E6E6"/>
<path d="M94.5869 95.6677C94.1532 95.9854 93.8592 96.4585 93.7663 96.9881C93.6735 97.5177 93.789 98.0626 94.0888 98.5089C94.3885 98.9553 94.8492 99.2684 95.3746 99.3827C95.8999 99.4971 96.4491 99.404 96.9073 99.1227L97.3648 99.5743C97.9733 98.4847 98.2242 97.0249 97.4461 96.0492C97.1002 95.6447 96.6171 95.382 96.0895 95.3116C95.5619 95.2412 95.0268 95.368 94.5869 95.6677Z" fill="#E6E6E6"/>
<path d="M89.2331 99.5767C89.2398 99.1874 89.1284 98.8052 88.9137 98.4804C88.6991 98.1556 88.3911 97.9034 88.0303 97.7569C87.7847 97.7148 87.5332 97.7228 87.2907 97.7805C87.0483 97.8381 86.8201 97.9443 86.6198 98.0925C86.4195 98.2407 86.2513 98.428 86.1253 98.6429C85.9993 98.8579 85.9181 99.0961 85.8866 99.3433C85.8489 99.8468 85.915 100.353 86.081 100.83C86.247 101.306 86.5093 101.744 86.8515 102.115C87.0506 102.414 87.3109 102.668 87.6151 102.859C87.9193 103.05 88.2606 103.175 88.6164 103.224C89.3334 103.248 90.0645 102.498 89.7737 101.842L88.6789 101.821C89.0162 101.119 89.2049 100.355 89.2331 99.5767Z" fill="#E6E6E6"/>
<path d="M67.8233 88.3646C68.2254 88.6905 68.6275 89.0164 69.0296 89.3423C69.726 89.9443 70.4784 90.4785 71.2763 90.9376C72.6721 91.7107 74.3136 91.9117 75.8546 91.498C76.6155 91.2811 77.3094 90.8761 77.8726 90.3204C78.4357 89.7647 78.8499 89.0761 79.0769 88.3183C79.5576 86.5068 78.7735 84.6258 78.006 82.9159C77.8309 82.4266 77.5419 81.986 77.1629 81.6304C76.9687 81.4584 76.721 81.3589 76.4618 81.3487C76.2027 81.3385 75.9479 81.4183 75.7409 81.5745C75.5907 81.7615 75.4908 81.9838 75.4508 82.2203C75.4107 82.4568 75.4318 82.6995 75.512 82.9256C75.6769 83.376 75.7523 83.8544 75.7339 84.3337C75.6575 84.8065 75.1612 85.2534 74.724 85.0579L74.6544 86.6674C72.5668 85.6106 71.4627 82.7996 69.1393 82.5225C68.6179 82.4603 68.0894 82.5424 67.6115 82.7601C67.1335 82.9777 66.7245 83.3224 66.4291 83.7565C66.1337 84.1907 65.9631 84.6976 65.9361 85.2221C65.9091 85.7465 66.0266 86.2683 66.2759 86.7305C66.6792 87.3717 67.2051 87.927 67.8233 88.3646Z" fill="#E6E6E6"/>
<path d="M62.851 81.4165C63.334 81.0854 63.7161 80.6273 63.9552 80.0929C64.1944 79.5584 64.2813 78.9683 64.2064 78.3876C64.1486 78.1063 64.0296 77.8412 63.8577 77.6112C63.6858 77.3812 63.4654 77.1918 63.2121 77.0566C62.9587 76.9214 62.6787 76.8437 62.392 76.829C62.1052 76.8143 61.8187 76.8629 61.5529 76.9715C60.9564 77.4174 60.5374 78.0604 60.3703 78.7862C59.8201 80.3382 59.2699 81.8902 58.7197 83.4423L59.6444 82.7694C60.7885 82.523 61.8762 82.0641 62.851 81.4165Z" fill="#E6E6E6"/>
<path d="M73.5671 71.8918C73.7323 71.6835 73.8498 71.4414 73.9114 71.1828C73.973 70.9241 73.9772 70.6551 73.9236 70.3947C73.87 70.1342 73.76 69.8887 73.6013 69.6754C73.4426 69.462 73.239 69.2861 73.005 69.1599L71.8487 69.0518C71.5858 69.1183 71.3422 69.2456 71.1373 69.4233C70.9325 69.6011 70.7722 69.8243 70.6692 70.0752C70.5663 70.3261 70.5236 70.5977 70.5446 70.8681C70.5655 71.1384 70.6496 71.4002 70.79 71.6322C70.9304 71.8642 71.1232 72.0601 71.353 72.2042C71.5827 72.3482 71.8431 72.4364 72.1131 72.4616C72.3831 72.4869 72.6553 72.4485 72.9078 72.3495C73.1603 72.2506 73.3861 72.0938 73.5671 71.8918Z" fill="#E6E6E6"/>
<path d="M84.2048 73.6766C85.2838 74.1928 86.6497 74.6847 87.5883 73.9434C87.8664 73.6918 88.0732 73.3713 88.1879 73.0143C88.3026 72.6573 88.3212 72.2763 88.2418 71.9098C88.0734 71.1786 87.7478 70.4929 87.2877 69.9002C85.8522 67.8392 84.0284 66.0782 81.9185 64.7157L81.3968 65.3935C80.6681 67.2856 79.9646 69.4944 80.9809 71.2489C81.6662 72.4316 82.9717 73.0866 84.2048 73.6766Z" fill="#E6E6E6"/>
<path d="M92.243 75.3605L94.2606 76.2732C94.0628 75.9284 93.7614 75.6547 93.3992 75.4909C93.0371 75.327 92.6325 75.2814 92.243 75.3605Z" fill="#E6E6E6"/>
<path d="M86.8057 81.7088L85.8523 82.0229C85.0416 83.3552 85.3933 85.0588 85.7704 86.572C86.0088 87.5287 86.523 88.7058 87.5079 88.6623C88.4663 88.62 88.8904 87.4579 89.0743 86.5163C89.3614 85.4935 89.3926 84.4158 89.1649 83.3781C89.0351 82.8644 88.726 82.4139 88.2935 82.1079C87.8609 81.8019 87.3333 81.6603 86.8057 81.7088Z" fill="#E6E6E6"/>
<path d="M71.6016 77.2249L72.307 77.509C72.4724 77.4854 72.6254 77.4079 72.7423 77.2885C72.8591 77.1691 72.9334 77.0145 72.9535 76.8486C72.9736 76.6828 72.9384 76.5149 72.8534 76.3711C72.7684 76.2273 72.6383 76.1155 72.4833 76.0531C72.3284 75.9907 72.1571 75.9811 71.9962 76.0259C71.8352 76.0707 71.6935 76.1673 71.5931 76.3008C71.4926 76.4343 71.439 76.5972 71.4405 76.7643C71.4421 76.9314 71.4987 77.0933 71.6016 77.2249Z" fill="#E6E6E6"/>
<path d="M107.167 131.168C106.825 131.175 106.49 131.264 106.19 131.428C105.89 131.591 105.633 131.824 105.441 132.107C105.249 132.39 105.127 132.714 105.086 133.053C105.045 133.393 105.086 133.737 105.205 134.058C105.897 135.549 108.283 135.556 109.344 134.298C109.615 133.941 109.81 133.531 109.915 133.095C110.02 132.659 110.034 132.206 109.955 131.764C109.877 131.322 109.707 130.901 109.458 130.528C109.208 130.155 108.884 129.838 108.506 129.597L107.167 131.168Z" fill="#E6E6E6"/>
<path d="M141.53 166.505C141.253 166.579 140.993 166.708 140.766 166.884C140.54 167.06 140.351 167.279 140.21 167.53C140.07 167.78 139.981 168.056 139.949 168.341C139.918 168.626 139.943 168.915 140.025 169.19L142.006 169.328C142.676 168.991 143.347 168.654 144.018 168.318C143.977 168.034 143.88 167.761 143.732 167.515C143.584 167.269 143.389 167.055 143.157 166.886C142.925 166.717 142.661 166.596 142.382 166.531C142.102 166.465 141.813 166.456 141.53 166.505Z" fill="#E6E6E6"/>
<path d="M133.479 168.955C132.912 169.358 132.457 169.898 132.157 170.524C131.857 171.151 131.721 171.844 131.763 172.538C131.827 173.23 132.11 173.884 132.571 174.404C133.032 174.925 133.646 175.285 134.325 175.434C135.011 175.541 135.712 175.384 136.286 174.995C136.86 174.605 137.265 174.012 137.419 173.336C137.754 171.287 135.552 169.786 134.761 167.867L133.479 168.955Z" fill="#E6E6E6"/>
<path d="M210.409 155.424C210.618 156.962 209.232 158.31 209.181 159.861C209.119 161.702 211.123 163.134 212.956 162.953C213.865 162.795 214.726 162.429 215.47 161.882C216.214 161.336 216.822 160.624 217.244 159.803L217.284 159.631C216.391 158.622 215.498 157.613 214.606 156.604C213.509 155.365 212.347 153.954 212.39 152.3C212.411 151.485 212.733 150.695 212.714 149.879C212.672 149.293 212.541 148.716 212.326 148.169C212.085 147.447 211.755 146.634 211.035 146.391C210.132 146.086 209.222 146.886 208.791 147.735C208.404 148.518 208.216 149.385 208.243 150.259C208.27 151.132 208.513 151.985 208.949 152.743C209.47 153.628 210.27 154.407 210.409 155.424Z" fill="#E6E6E6"/>
<path d="M201.99 160.836C202.186 160.941 202.401 161.003 202.623 161.017C202.844 161.031 203.066 160.998 203.273 160.918C204.069 160.782 204.833 160.505 205.53 160.098C205.876 159.89 206.161 159.594 206.355 159.239C206.548 158.885 206.645 158.486 206.634 158.082C206.513 157.575 206.245 157.114 205.863 156.759C205.48 156.404 205.001 156.171 204.486 156.088C204.129 155.962 203.746 155.926 203.371 155.984C202.996 156.041 202.642 156.19 202.338 156.416C201.673 157.04 201.752 158.099 201.882 159.002L201.742 159.237C201.617 159.795 201.537 160.488 201.99 160.836Z" fill="#E6E6E6"/>
<path d="M342.503 226.565C342.31 226.085 342.117 225.605 341.923 225.125C341.659 225.777 341.757 226.444 342.503 226.565Z" fill="#E6E6E6"/>
<path d="M458.41 125.57C455.932 122.882 454.415 121.332 452.85 118C451.998 116.162 450.705 114.563 449.086 113.347C447.466 112.131 445.57 111.334 443.568 111.029C438.428 110.182 433.175 111.523 427.972 111.255C419.638 110.824 412.124 106.354 404.143 103.916C399.675 102.664 395.124 101.726 390.525 101.108C387.875 100.689 385.225 100.27 382.575 99.8504C373.888 98.4766 365.146 97.0988 356.353 97.2813C353.817 97.3339 350.285 96.5718 350.488 94.0439C350.74 90.9042 356.389 91.3164 357.476 88.36C358.148 86.5311 356.539 84.6109 354.775 83.784C353.011 82.957 350.974 82.7083 349.373 81.598C347.772 80.4878 346.894 77.914 348.366 76.6369C344.287 78.7279 340.208 80.819 336.129 82.9101C332.738 84.6485 328.949 86.9104 328.35 90.6739C326.306 91.2139 324.518 92.4562 323.299 94.1829C321.005 94.1949 319.201 96.3977 318.823 98.6607C318.444 100.924 319.132 103.214 319.812 105.405C318.98 103.811 318.096 102.156 316.629 101.116C315.162 100.076 312.929 99.8778 311.679 101.17C310.395 102.496 310.696 104.721 311.603 106.327C312.511 107.934 313.906 109.231 314.762 110.865C317.438 115.97 312.59 123.157 306.855 122.588C307.239 117.317 307.624 112.046 308.009 106.774C308.252 105.153 308.116 103.497 307.61 101.937C306.985 100.428 305.383 99.189 303.789 99.5454C300.922 100.186 301.167 104.385 302.359 107.069C303.552 109.754 304.741 113.486 302.306 115.13C300.735 116.192 298.603 115.536 296.906 114.689C295.209 113.842 293.394 112.797 291.539 113.193C289.684 113.589 288.517 116.425 290.156 117.38C287.438 116.907 284.72 116.435 282.002 115.962C281.868 116.763 281.567 117.526 281.119 118.202C280.671 118.879 280.086 119.454 279.402 119.89C278.718 120.326 277.95 120.614 277.148 120.735C276.346 120.856 275.527 120.808 274.745 120.593C274.478 119.487 274.211 118.381 273.944 117.275C273.547 117.165 273.149 117.054 272.751 116.943C274 117.291 272.046 122.556 270.295 126.578C267.941 126.302 264.5 126.249 264.108 125.574C262.228 122.344 262.451 114.649 259.185 112.832C257.547 111.92 255.868 111.09 254.147 110.34C253.242 109.91 252.287 109.596 251.304 109.407C249.298 109.091 247.276 109.713 245.34 110.328C243.054 111.054 240.714 111.807 238.82 113.281C237.203 114.684 235.817 116.332 234.713 118.166C230.974 123.699 227.235 129.232 223.497 134.765C222.383 136.243 221.506 137.885 220.899 139.633C220.613 140.502 220.517 141.423 220.62 142.332C220.722 143.242 221.019 144.118 221.491 144.902C221.988 145.671 222.73 146.25 223.596 146.546C224.462 146.842 225.403 146.838 226.266 146.534C227.35 146.065 228.435 145.002 229.509 145.493C230.322 145.865 230.525 146.934 230.44 147.824C230.233 148.695 230.217 149.601 230.392 150.48C230.881 151.865 232.762 152.347 234.103 151.748C235.408 151.036 236.385 149.846 236.83 148.429C238.122 145.114 237.99 141.446 238.312 137.902C238.634 134.359 239.602 130.569 242.396 128.366C243.232 127.706 244.461 127.231 245.322 127.858C245.644 128.151 245.867 128.537 245.959 128.963C246.051 129.389 246.008 129.832 245.836 130.232C245.476 131.024 245.007 131.761 244.442 132.422C243.488 133.765 242.82 135.29 242.48 136.902C242.14 138.514 242.136 140.179 242.467 141.793L243.038 142.147C245.216 141.582 248.132 142.593 251.024 143.563C248.925 144.188 247.076 145.459 245.742 147.196C242.399 151.886 239.98 156.325 233.367 156.269C231.798 156.256 230.243 155.946 228.674 155.942C227.091 155.844 225.531 156.364 224.322 157.391C223.133 158.556 222.765 160.329 221.748 161.647C220.41 163.379 218.173 164.083 216.131 164.87C214.639 165.445 213.065 166.22 212.379 167.665C211.948 168.85 211.849 170.13 212.092 171.368C212.322 173.556 212.729 176.045 214.585 177.226C215.279 177.588 216.039 177.808 216.819 177.874C217.599 177.94 218.385 177.851 219.13 177.61C221.061 177.141 222.949 176.256 224.932 176.388C228.046 176.596 230.609 179.584 230.641 182.704C230.657 184.284 230.196 186.095 231.243 187.278C232.227 188.39 234.178 188.191 235.197 187.112C235.671 186.539 235.997 185.857 236.146 185.128C236.296 184.399 236.265 183.644 236.056 182.93C235.623 181.508 234.957 180.167 234.086 178.962C235.122 178.693 236.219 178.792 237.191 179.241C238.163 179.69 238.949 180.462 239.415 181.426C240.107 182.962 239.883 184.735 240.104 186.405C240.325 188.075 241.342 189.932 243.024 190.028C243.574 190.044 244.112 189.866 244.545 189.526C244.978 189.187 245.278 188.706 245.394 188.168C245.411 187.32 245.365 186.473 245.255 185.632C245.313 184.804 245.685 184.03 246.295 183.468C246.905 182.906 247.707 182.598 248.537 182.608C248.025 183.554 247.858 184.648 248.066 185.703C248.273 186.758 248.84 187.708 249.671 188.39C250.952 189.381 252.644 189.602 254.238 189.879C255.833 190.156 257.534 190.594 258.564 191.843C260.278 193.924 258.18 194.861 257.854 196.623C257.453 198.787 259.26 201.982 259.954 204.051C263.144 208.513 266.333 212.976 269.523 217.438C270.235 218.523 271.075 219.518 272.024 220.403C275.173 223.107 280.364 222.841 283.383 219.993C284.847 218.512 285.798 216.6 286.095 214.539C286.393 212.478 286.022 210.376 285.037 208.541C283.171 205.144 279.474 203.04 277.648 199.622C280.687 202.138 284.418 203.672 288.347 204.022C295.3 205.435 301.906 208.205 307.786 212.174C308.062 218.318 310.42 224.185 314.471 228.812C315.199 223.569 317.644 218.715 321.422 215.007C323.88 212.611 327.237 210.679 330.609 211.323C333.98 211.968 336.538 216.267 334.499 219.028C336.207 219.155 337.916 219.282 339.624 219.409C340.391 221.314 341.157 223.219 341.923 225.125C342.06 224.724 342.321 224.378 342.668 224.137C343.016 223.896 343.431 223.772 343.854 223.784C345.454 224.026 346.576 225.514 348.097 226.064C350.965 227.099 354.031 224.23 354.402 221.203C354.773 218.177 353.333 215.254 351.934 212.545C355.024 213.117 358.215 212.776 361.114 211.563C364.013 210.35 366.496 208.318 368.258 205.716C370.02 203.114 370.986 200.054 371.036 196.912C371.086 193.769 370.219 190.681 368.541 188.024C371.866 184.531 375.779 181.65 380.101 179.512C384.102 177.536 388.477 176.18 391.973 173.407C395.469 170.635 397.921 165.822 396.239 161.689C395.051 158.77 392.072 156.788 391.18 153.765C389.89 149.389 393.811 144.862 398.24 143.769C402.67 142.676 407.296 144.019 411.659 145.353C410.989 140.863 416.193 136.654 420.444 138.248C422.224 137.527 424.004 136.806 425.784 136.086C423.721 140.635 419.249 143.53 415.961 147.291C412.673 151.052 410.715 157.177 414.15 160.805C419.073 156.343 423.996 151.881 428.919 147.419C434.069 142.751 439.219 138.084 444.368 133.416C444.122 132.694 443.876 131.972 443.63 131.249C448.503 129.399 453.75 127.868 458.41 125.57Z" fill="#E6E6E6"/>
<path d="M202.697 185.625C202.498 185.911 202.392 186.252 202.394 186.601C202.395 186.949 202.505 187.289 202.707 187.573C202.971 187.798 203.305 187.923 203.652 187.928C203.999 187.933 204.337 187.816 204.607 187.599C205.136 187.148 205.549 186.576 205.811 185.932C206.067 186.427 206.469 186.831 206.962 187.089C207.456 187.348 208.017 187.448 208.569 187.376C209.672 187.21 210.717 186.774 211.611 186.108C212.321 185.692 212.947 185.148 213.459 184.505C213.712 184.181 213.886 183.802 213.967 183.398C214.047 182.995 214.032 182.578 213.923 182.182C213.658 181.574 213.245 181.041 212.723 180.632C211.42 179.429 210.117 178.225 208.815 177.022L208.373 176.89C208.143 176.645 207.867 176.45 207.559 176.315C207.252 176.18 206.921 176.109 206.585 176.105C206.25 176.102 205.917 176.166 205.607 176.294C205.297 176.422 205.016 176.612 204.781 176.851C203.973 177.757 203.969 179.11 204.093 180.318C204.216 181.526 204.409 182.813 203.871 183.901C203.562 184.525 203.04 185.019 202.697 185.625Z" fill="#E6E6E6"/>
<path d="M278.279 226.729C273.216 225.602 268.582 223.049 264.924 219.373C261.267 215.696 258.738 211.049 257.636 205.981C257.156 203.589 256.939 200.976 255.348 199.127C253.807 197.337 251.291 196.691 248.929 196.691C246.568 196.691 244.24 197.235 241.883 197.382C237.762 197.639 233.395 196.55 230.448 193.658C229.053 192.288 227.996 190.549 226.367 189.469C224.176 188.017 221.272 188.018 218.776 188.841C215.996 189.757 213.771 192.264 210.732 191.919C207.57 191.56 203.906 190.443 202.667 194.605C202.31 195.804 202.431 197.118 201.98 198.285C201.283 200.082 199.434 201.095 197.972 202.35C195.026 204.879 193.46 208.72 192.932 212.566C192.405 216.413 192.813 220.319 193.222 224.179C193.442 226.262 193.732 228.503 195.162 230.032C197.156 232.164 200.502 232.081 203.411 231.841C206.791 231.562 210.17 231.283 213.55 231.004C215.372 230.854 217.448 230.79 218.745 232.078C219.522 232.85 219.851 233.967 220.534 234.823C221.148 235.551 221.99 236.05 222.924 236.238C223.857 236.427 224.827 236.293 225.675 235.859C224.99 237.084 224.616 238.458 224.589 239.861C224.561 241.264 224.88 242.652 225.516 243.902C226.153 245.153 227.088 246.227 228.239 247.03C229.39 247.832 230.721 248.339 232.114 248.505L232.374 248.669C230.211 252.374 227.966 256.535 228.863 260.731C229.632 264.328 232.612 267.213 233.099 270.859C233.546 274.205 231.8 277.627 232.573 280.913C233.355 284.24 236.715 286.56 240.124 286.808C243.534 287.055 246.883 285.543 249.524 283.373C252.165 281.202 254.207 278.407 256.219 275.643C257.461 273.937 258.735 272.162 259.162 270.094C259.616 267.895 259.09 265.457 260.159 263.482C261.393 261.205 264.321 260.351 265.799 258.224C267.712 255.47 266.585 251.719 267.008 248.391C268.055 240.158 278.517 235.026 278.279 226.729Z" fill="#E6E6E6"/>
<path d="M276.768 254.839C276.482 256.125 275.278 256.971 274.131 257.618C272.984 258.266 271.722 258.918 271.138 260.099C270.539 261.308 270.813 262.748 271.126 264.06C271.777 266.79 272.545 269.488 273.428 272.156C275.14 268.921 276.634 265.576 277.902 262.143C278.438 260.865 278.77 259.51 278.883 258.129C278.936 257.437 278.843 256.742 278.61 256.089C278.378 255.436 278.011 254.838 277.533 254.335L276.768 254.839Z" fill="#E6E6E6"/>
<path d="M347.169 240.519C345.732 238.859 344.294 237.2 342.857 235.54C341.874 234.405 340.753 233.193 339.263 233.004L338.65 233.396C339.896 236.364 341.143 239.331 342.389 242.299C342.83 243.654 343.607 244.876 344.647 245.851C345.763 246.727 347.572 246.896 348.502 245.825C348.802 245.423 348.992 244.95 349.051 244.452C349.11 243.954 349.038 243.449 348.84 242.988C348.435 242.072 347.869 241.236 347.169 240.519Z" fill="#E6E6E6"/>
<path d="M361.099 243.697C361.642 243.508 362.14 243.208 362.561 242.816C362.981 242.423 363.316 241.948 363.542 241.419C363.987 240.36 364.282 239.243 364.416 238.102C364.662 236.616 364.907 235.13 365.153 233.644L364.832 233.561C364.52 233.411 364.164 233.38 363.83 233.473C363.496 233.565 363.207 233.776 363.017 234.065C362.655 234.655 362.381 235.295 362.204 235.964C362.113 236.298 361.947 236.608 361.72 236.869C361.492 237.131 361.209 237.338 360.89 237.474C359.736 237.822 358.644 236.599 357.439 236.647C356.953 236.709 356.501 236.934 356.159 237.285C355.817 237.637 355.604 238.094 355.554 238.582C355.485 239.567 355.764 240.546 356.343 241.346C357.37 242.94 359.276 244.221 361.099 243.697Z" fill="#E6E6E6"/>
<path d="M369.047 246.514L372.36 237.788C371.017 238.762 369.989 240.106 369.4 241.657C368.812 243.207 368.689 244.895 369.047 246.514Z" fill="#E6E6E6"/>
<path d="M385.954 239.48L385.284 239.509C384.984 240.101 384.825 240.754 384.819 241.417C384.813 242.081 384.959 242.737 385.247 243.335C385.835 244.527 386.69 245.566 387.747 246.373C389.383 247.724 391.251 248.767 393.26 249.452C396.206 250.311 399.252 250.78 402.32 250.847C404.074 250.962 405.827 251.077 407.581 251.191C408.417 251.246 409.497 251.14 409.73 250.336C409.921 249.672 409.355 249.047 408.827 248.601C404.187 244.697 398.562 242.144 392.568 241.222C390.294 240.876 387.882 240.734 385.954 239.48Z" fill="#E6E6E6"/>
<path d="M404.674 262.636C403.413 261.413 402.151 260.19 400.89 258.967C399.663 257.778 397.826 256.517 396.42 257.488C395.612 258.047 395.363 259.135 394.678 259.839C394.261 260.213 393.757 260.477 393.212 260.606C392.667 260.736 392.099 260.728 391.558 260.582C390.481 260.279 389.462 259.797 388.546 259.154L385.416 257.212C384.336 256.542 383.256 255.872 382.176 255.202L379.739 257.571C379.845 256.405 378.291 255.648 377.215 256.108C376.704 256.395 376.264 256.794 375.928 257.274C375.591 257.755 375.368 258.305 375.274 258.883C375.095 260.04 374.782 261.172 374.342 262.257C373.105 264.627 370.1 265.328 367.457 265.725C364.814 266.122 361.819 266.681 360.404 268.948C359.226 270.837 359.579 273.263 359.973 275.454L361.463 283.744C361.533 284.748 361.936 285.7 362.608 286.45C363.916 287.605 365.943 286.903 367.541 286.198C370.879 284.593 374.462 283.554 378.143 283.126C381.855 282.71 385.591 283.667 388.647 285.816C390.541 287.258 391.986 289.255 393.992 290.536C395.375 291.368 396.929 291.873 398.536 292.013C400.144 292.154 401.762 291.925 403.267 291.346C406.285 290.144 408.783 287.916 410.321 285.055C411.687 282.532 412.373 279.697 412.31 276.829C412.248 273.96 411.44 271.158 409.965 268.697C408.46 266.465 406.682 264.429 404.674 262.636Z" fill="#E6E6E6"/>
<path d="M400.955 296.41C400.652 296.778 400.475 297.233 400.45 297.708C400.424 298.183 400.552 298.654 400.813 299.052C401.363 299.84 402.201 300.379 403.145 300.553C404.081 300.721 405.034 300.764 405.981 300.683L406.01 299.976C405.757 298.734 405.185 297.581 404.349 296.629C403.435 295.761 401.821 295.494 400.955 296.41Z" fill="#E6E6E6"/>
<path d="M433.434 297.167L432.982 297.001C431.906 298.623 430.83 300.246 429.753 301.868C429.174 302.74 428.57 303.789 428.923 304.775C429.341 305.942 430.887 306.284 432.088 305.975C433.004 305.726 433.83 305.221 434.47 304.52C435.109 303.818 435.535 302.948 435.698 302.013C435.831 301.072 435.687 300.114 435.285 299.254C434.883 298.393 434.24 297.668 433.434 297.167Z" fill="#E6E6E6"/>
<path d="M441.639 292.019L438.667 289.657C438.628 290.752 438.588 291.848 438.548 292.944L438.437 292.946C439.122 293.547 439.769 294.19 440.373 294.872C441.069 295.463 442.236 295.734 442.83 295.041C443.008 294.793 443.109 294.498 443.12 294.193C443.132 293.888 443.053 293.586 442.894 293.326C442.567 292.81 442.14 292.366 441.639 292.019Z" fill="#E6E6E6"/>
<path d="M387.961 189.255C386.714 189.216 385.334 189.14 384.368 189.929C384.05 190.213 383.772 190.538 383.539 190.896L383.198 191.373C382.689 192.04 382.244 192.755 381.871 193.507C381.676 193.86 381.559 194.25 381.528 194.652C381.497 195.053 381.552 195.457 381.69 195.836C381.77 196.017 381.889 196.178 382.038 196.308C382.187 196.438 382.363 196.533 382.553 196.588C382.743 196.642 382.943 196.654 383.138 196.623C383.333 196.592 383.519 196.518 383.683 196.408C384.216 195.914 384.091 195.019 384.494 194.414C384.672 194.187 384.899 194.003 385.16 193.879C385.42 193.754 385.706 193.692 385.994 193.697C386.57 193.711 387.143 193.776 387.707 193.891C389.27 194.105 390.862 193.867 392.294 193.206C393.726 192.544 394.939 191.487 395.79 190.158C396.64 188.83 397.093 187.285 397.094 185.708C397.095 184.13 396.645 182.585 395.796 181.256L395.696 180.949C394.832 180.916 393.985 181.187 393.301 181.714C392.617 182.242 392.139 182.993 391.951 183.836C391.672 185.288 392.264 186.976 391.383 188.164C390.64 189.166 389.208 189.294 387.961 189.255Z" fill="#E6E6E6"/>
<path d="M399.121 173.855L398.931 173.838C397.816 174.042 396.746 174.441 395.77 175.016C395.449 175.165 395.193 175.425 395.049 175.747C395.007 175.918 395.008 176.097 395.051 176.268C395.095 176.439 395.181 176.596 395.301 176.725C395.543 176.981 395.826 177.194 396.139 177.356C396.605 177.667 397.12 177.898 397.663 178.038C397.935 178.105 398.22 178.103 398.491 178.033C398.763 177.963 399.012 177.826 399.218 177.636C399.411 177.371 399.544 177.067 399.607 176.745C399.67 176.423 399.662 176.092 399.583 175.773C399.494 175.12 399.339 174.477 399.121 173.855Z" fill="#E6E6E6"/>
<path d="M379.905 189.625C380.203 189.148 380.415 188.622 380.531 188.071C380.647 187.643 380.763 187.215 380.879 186.788L379.637 186.033C379.043 186.342 378.496 186.732 378.01 187.192C377.768 187.424 377.577 187.704 377.449 188.013C377.32 188.322 377.257 188.655 377.263 188.99C377.281 189.325 377.41 189.644 377.632 189.895C377.853 190.147 378.154 190.316 378.483 190.375C378.765 190.383 379.044 190.319 379.293 190.187C379.542 190.056 379.753 189.862 379.905 189.625Z" fill="#E6E6E6"/>
<path d="M244.519 74.0576C244.028 74.364 244.167 75.1045 244.366 75.6482C244.595 76.2724 244.824 76.8966 245.053 77.5208L245.373 76.3091C245.654 75.8391 245.778 75.2917 245.727 74.7464C245.617 74.2138 244.981 73.7699 244.519 74.0576Z" fill="#E6E6E6"/>
<path d="M554.804 186.5H346.943C341.933 186.494 337.129 184.502 333.587 180.959C330.044 177.417 328.052 172.614 328.046 167.604V18.8965C328.052 13.8866 330.044 9.08349 333.587 5.54094C337.13 1.9984 341.933 0.00569938 346.943 0H554.804C559.814 0.00569721 564.617 1.9984 568.159 5.54094C571.702 9.08349 573.695 13.8866 573.7 18.8965V167.604C573.695 172.614 571.702 177.417 568.159 180.959C564.617 184.502 559.814 186.494 554.804 186.5Z" fill="white"/>
<path d="M554.804 186.5H346.943C341.933 186.494 337.129 184.502 333.587 180.959C330.044 177.417 328.052 172.614 328.046 167.604V18.8965C328.052 13.8866 330.044 9.08349 333.587 5.54094C337.13 1.9984 341.933 0.00569938 346.943 0H554.804C559.814 0.00569721 564.617 1.9984 568.159 5.54094C571.702 9.08349 573.695 13.8866 573.7 18.8965V167.604C573.695 172.614 571.702 177.417 568.159 180.959C564.617 184.502 559.814 186.494 554.804 186.5ZM346.943 1.64317C342.368 1.6483 337.983 3.4677 334.748 6.70222C331.514 9.93673 329.694 14.3222 329.689 18.8965V167.604C329.694 172.178 331.514 176.563 334.748 179.798C337.983 183.032 342.368 184.852 346.943 184.857H554.804C559.378 184.852 563.764 183.032 566.998 179.798C570.233 176.563 572.052 172.178 572.057 167.604V18.8965C572.052 14.3222 570.233 9.93673 566.998 6.70222C563.764 3.4677 559.378 1.6483 554.804 1.64317H346.943Z" fill="#3F3D56"/>
<path d="M403.496 22.6421H370.633C369.761 22.6421 368.925 22.2959 368.309 21.6796C367.693 21.0633 367.346 20.2274 367.346 19.3558C367.346 18.4842 367.693 17.6483 368.309 17.032C368.925 16.4157 369.761 16.0695 370.633 16.0695H403.496C404.368 16.0695 405.204 16.4157 405.82 17.032C406.436 17.6483 406.782 18.4842 406.782 19.3558C406.782 20.2274 406.436 21.0633 405.82 21.6796C405.204 22.2959 404.368 22.6421 403.496 22.6421Z" fill="#CCCCCC"/>
<path d="M474.974 96.585H370.633C369.761 96.585 368.925 96.2387 368.309 95.6224C367.693 95.0061 367.346 94.1702 367.346 93.2986C367.346 92.427 367.693 91.5911 368.309 90.9748C368.925 90.3585 369.761 90.0123 370.633 90.0123H474.974C475.846 90.0123 476.682 90.3585 477.298 90.9748C477.914 91.5911 478.26 92.427 478.26 93.2986C478.26 94.1702 477.914 95.0061 477.298 95.6224C476.682 96.2387 475.846 96.585 474.974 96.585Z" fill="#CCCCCC"/>
<path d="M389.115 75.8382C401.284 75.8382 411.149 65.9733 411.149 53.8042C411.149 41.6351 401.284 31.7701 389.115 31.7701C376.946 31.7701 367.081 41.6351 367.081 53.8042C367.081 65.9733 376.946 75.8382 389.115 75.8382Z" fill="#0070AB"/>
<path d="M372.276 159.344H367.346V160.987H372.276V159.344Z" fill="#3F3D56"/>
<path d="M517.014 160.987H506.675V159.344H517.014V160.987ZM496.337 160.987H485.998V159.344H496.337V160.987ZM475.66 160.987H465.321V159.344H475.66V160.987ZM454.983 160.987H444.645V159.344H454.983L454.983 160.987ZM434.307 160.987H423.968V159.344H434.307V160.987ZM413.63 160.987H403.291V159.344H413.63L413.63 160.987ZM392.953 160.987H382.614V159.344H392.953V160.987Z" fill="#3F3D56"/>
<path d="M532.281 159.344H527.352V160.987H532.281V159.344Z" fill="#3F3D56"/>
<path d="M451.015 130.27H446.907V158.204H451.015V130.27Z" fill="#0070AB"/>
<path d="M492.916 130.27H488.808V158.204H492.916V130.27Z" fill="#0070AB"/>
<path d="M513.456 145.88H509.348V158.204H513.456V145.88Z" fill="#0070AB"/>
<path d="M471.555 117.946H467.447V158.204H471.555V117.946Z" fill="#0070AB"/>
<path d="M73.9073 186.138C76.6298 186.138 78.8369 183.931 78.8369 181.208C78.8369 178.486 76.6298 176.279 73.9073 176.279C71.1848 176.279 68.9778 178.486 68.9778 181.208C68.9778 183.931 71.1848 186.138 73.9073 186.138Z" fill="#0070AB"/>
<path d="M87.0527 162.312C89.7752 162.312 91.9822 160.105 91.9822 157.382C91.9822 154.66 89.7752 152.453 87.0527 152.453C84.3302 152.453 82.1232 154.66 82.1232 157.382C82.1232 160.105 84.3302 162.312 87.0527 162.312Z" fill="#0070AB"/>
<path d="M231.652 143.415C234.374 143.415 236.581 141.208 236.581 138.486C236.581 135.763 234.374 133.556 231.652 133.556C228.929 133.556 226.722 135.763 226.722 138.486C226.722 141.208 228.929 143.415 231.652 143.415Z" fill="#0070AB"/>
<path d="M118.498 490.871L125.934 490.87L129.471 462.191L118.497 462.192L118.498 490.871Z" fill="#FFB6B6"/>
<path d="M118.237 498.627L141.101 498.626V498.337C141.101 495.977 140.163 493.713 138.494 492.044C136.825 490.375 134.562 489.438 132.201 489.438H132.201L128.024 486.269L120.232 489.438L118.236 489.438L118.237 498.627Z" fill="#2F2E41"/>
<path d="M174.366 490.871L181.802 490.87L185.338 462.191L174.365 462.192L174.366 490.871Z" fill="#FFB6B6"/>
<path d="M174.104 498.627L196.969 498.626V498.337C196.969 495.977 196.031 493.713 194.362 492.044C192.693 490.375 190.429 489.438 188.069 489.438H188.069L183.892 486.269L176.1 489.438L174.104 489.438L174.104 498.627Z" fill="#2F2E41"/>
<path d="M118.209 257.572L131.405 255.682C135.867 263.144 137.453 283.007 137.453 283.007L150.367 313.7C151.222 314.281 151.909 315.077 152.359 316.008C152.809 316.938 153.005 317.971 152.929 319.002C152.853 320.033 152.506 321.026 151.924 321.881C151.343 322.735 150.546 323.421 149.614 323.87C148.683 324.319 147.65 324.514 146.619 324.437C145.588 324.359 144.596 324.012 143.742 323.429C142.888 322.846 142.203 322.048 141.755 321.116C141.308 320.184 141.113 319.151 141.192 318.12L119.989 282.394L118.209 257.572Z" fill="#FFB6B6"/>
<path d="M125.361 220.939C123.319 221.256 121.371 222.018 119.657 223.173C117.943 224.327 116.504 225.845 115.443 227.619C114.383 229.393 113.726 231.378 113.52 233.435C113.313 235.491 113.563 237.568 114.251 239.517L117.051 247.454C117.051 247.454 113.524 271.351 119.337 278.097L137.174 276.482C137.174 276.482 133.913 264.425 136.417 258.592C137.95 255.019 137.865 242.68 136.354 232.643C135.2 224.978 133.021 219.753 125.361 220.939Z" fill="#0070AB"/>
<path d="M186.875 292.944C186.875 292.944 200.625 306.353 197.688 309.45C194.752 312.547 188.036 316.885 194.27 317.592C200.503 318.298 203.089 319.83 197.688 321.118C192.288 322.406 193.122 325.714 193.122 325.714C193.122 325.714 201.253 364.422 195.091 389.891C195.091 389.891 191.662 459.456 189.51 464.874C187.358 470.292 186.536 467.005 187.358 470.292C188.18 473.578 189.823 467.827 188.18 473.578C187.283 476.582 186.573 479.639 186.054 482.73L169.982 480.266C169.982 480.266 167.394 472.109 169.982 469.968C172.569 467.827 174.891 469.147 172.087 464.379C169.283 459.611 168.462 466.184 169.283 459.611C170.105 453.038 166.675 417.49 172.087 398.704L162.086 345.988L146.207 400.572C146.207 400.572 137.785 467.236 135.048 469.585C132.312 471.935 128.204 467.827 132.312 471.935C136.42 476.043 136.348 475.336 136.42 476.043C137.185 483.579 113.663 475.336 113.663 475.336C113.794 473.421 113.794 471.5 113.663 469.585C113.415 467.827 116.376 467.264 113.663 465.492C110.95 463.719 114.987 465.477 114.987 465.477C114.987 465.477 121.052 416.297 125.667 401.393L131.008 328.817C131.008 328.817 131.347 330.265 131.008 326.746C130.669 323.228 128.204 325.692 130.669 323.228C133.133 320.763 134.776 319.507 133.133 317.67C131.49 315.833 126.957 312.117 129.634 309.867C132.312 307.617 137.58 292.944 137.58 292.944L188.929 293.355" fill="#0BD6AC"/>
<path d="M167.569 211.464L158.31 201.039L143.68 202.664L134.314 215.773C129.328 216.919 124.971 219.932 122.14 224.193C119.308 228.454 118.217 233.638 119.091 238.678C122.726 259.608 135.078 279.908 131 290.234C124.808 305.91 124.43 312.304 139.251 310.106C154.072 307.908 203.724 302.842 194.098 293.215C184.471 283.589 182.357 267.503 182.357 267.503L181.971 230.7C182.38 228.481 182.326 226.2 181.811 224.003C181.296 221.805 180.332 219.738 178.979 217.931C177.626 216.124 175.914 214.617 173.95 213.504C171.987 212.391 169.814 211.697 167.569 211.464Z" fill="#0070AB"/>
<path d="M165.04 251.821L178.235 249.931C182.698 257.393 184.284 277.256 184.284 277.256L197.197 307.949C198.052 308.53 198.739 309.326 199.189 310.256C199.639 311.187 199.836 312.22 199.76 313.251C199.683 314.282 199.337 315.275 198.755 316.13C198.173 316.984 197.376 317.67 196.445 318.119C195.513 318.568 194.48 318.763 193.449 318.686C192.418 318.608 191.426 318.26 190.572 317.677C189.718 317.095 189.033 316.297 188.586 315.365C188.138 314.433 187.944 313.4 188.023 312.369L166.82 276.643L165.04 251.821Z" fill="#FFB6B6"/>
<path d="M172.191 215.188C170.149 215.504 168.202 216.267 166.487 217.422C164.773 218.576 163.335 220.094 162.274 221.868C161.213 223.642 160.556 225.627 160.35 227.684C160.144 229.74 160.394 231.817 161.081 233.766L163.881 241.702C163.881 241.702 160.354 265.6 166.167 272.346L184.005 270.731C184.005 270.731 180.743 258.674 183.247 252.841C184.781 249.268 184.695 236.929 183.185 226.892C182.031 219.227 179.851 214.002 172.191 215.188Z" fill="#0070AB"/>
<path d="M146.972 200.141C156.738 200.141 164.655 192.224 164.655 182.458C164.655 172.692 156.738 164.775 146.972 164.775C137.206 164.775 129.289 172.692 129.289 182.458C129.289 192.224 137.206 200.141 146.972 200.141Z" fill="#FFB6B6"/>
<path d="M143.72 199.768C148.645 198.534 148.813 197.127 153.738 195.893C155.306 195.5 157.123 194.881 157.587 193.333C157.698 192.767 157.675 192.183 157.521 191.626C157.368 191.07 157.087 190.558 156.702 190.128C155.926 189.278 155.199 188.385 154.525 187.452C154.078 186.703 153.82 185.857 153.774 184.986C153.728 184.115 153.895 183.246 154.26 182.454C154.625 181.662 155.177 180.97 155.869 180.44C156.561 179.909 157.372 179.555 158.232 179.408C159.755 179.147 161.326 179.551 162.859 179.355C164.962 179.087 168.055 171.286 166.707 169.65C165.395 168.057 163.241 167.107 162.517 165.175C162.044 163.911 162.303 162.498 162.092 161.165C161.78 159.188 157.78 164.661 158.312 162.732C159.618 158 137.523 157.255 135.223 163.325C134.363 165.594 132.036 165.955 130.246 167.592C129.072 168.666 126.266 172.1 125.859 173.951C125.522 175.823 125.587 177.745 126.05 179.59C127.885 188.238 130.918 195.903 138.991 199.505" fill="#2F2E41"/>
<path d="M4.27379 499.747L324.467 500C324.596 500 324.723 499.975 324.842 499.926C324.961 499.877 325.069 499.805 325.161 499.714C325.252 499.624 325.324 499.516 325.373 499.397C325.423 499.278 325.448 499.15 325.448 499.022C325.448 498.893 325.423 498.766 325.373 498.647C325.324 498.528 325.252 498.42 325.161 498.329C325.069 498.238 324.961 498.166 324.842 498.117C324.723 498.068 324.596 498.043 324.467 498.043L4.27379 497.791C4.14508 497.791 4.01758 497.816 3.89856 497.865C3.77955 497.914 3.67136 497.986 3.58022 498.077C3.48908 498.167 3.41678 498.275 3.36744 498.394C3.3181 498.513 3.2927 498.641 3.2927 498.769C3.2927 498.898 3.3181 499.025 3.36744 499.144C3.41678 499.263 3.48908 499.371 3.58022 499.462C3.67136 499.553 3.77955 499.625 3.89856 499.674C4.01758 499.723 4.14508 499.748 4.27379 499.747Z" fill="#CACACA"/>
</svg>
