<svg width="21" height="24" viewBox="0 0 21 24" fill="none" xmlns="http://www.w3.org/2000/svg">
<path d="M0.763425 9.29999C0.628516 9.30121 0.495687 9.26671 0.378426 9.19999C0.292418 9.15164 0.216915 9.08663 0.156335 9.00875C0.095755 8.93088 0.0513148 8.8417 0.0256146 8.74644C-8.55533e-05 8.65118 -0.00652965 8.55176 0.00665943 8.45398C0.0198485 8.3562 0.052406 8.26203 0.102427 8.17699C1.06642 6.56799 3.99942 2.8125 10.3994 2.8125C13.1729 2.8125 15.6054 3.541 17.6259 4.977C19.2889 6.15549 20.2209 7.48949 20.6649 8.13199C20.7212 8.21297 20.7607 8.30441 20.7812 8.40091C20.8016 8.4974 20.8025 8.59702 20.7839 8.69388C20.7653 8.79074 20.7275 8.8829 20.6727 8.96492C20.6179 9.04694 20.5472 9.11718 20.4649 9.17149C20.2966 9.28273 20.0916 9.32407 19.8933 9.28673C19.6951 9.2494 19.5192 9.13633 19.4029 8.97149C18.5994 7.81599 16.1494 4.3 10.3994 4.3C4.78692 4.3 2.24942 7.53549 1.42292 8.92299C1.35652 9.03885 1.26038 9.13488 1.14444 9.20116C1.0285 9.26744 0.896962 9.30155 0.763425 9.29999Z" fill="#0085CA"/>
<path d="M13.6239 23.9999C13.5601 24.0007 13.4964 23.9935 13.4344 23.9784C8.79193 22.8284 7.05844 18.1874 6.98794 17.9944L6.97694 17.9519C6.93894 17.8179 6.00744 14.6354 7.43744 12.7715C8.09294 11.9215 9.08993 11.4855 10.4064 11.4855C11.6304 11.4855 12.5134 11.866 13.1204 12.6535C13.6204 13.2965 13.8204 14.0895 14.0139 14.8534C14.4204 16.4444 14.7139 17.2799 16.4034 17.3659C17.1454 17.4034 17.6329 16.9694 17.9094 16.5999C18.6569 15.5924 18.7869 13.95 18.2234 12.5C17.4994 10.6285 14.9299 7.09997 10.3994 7.09997C8.46543 7.09997 6.68844 7.72146 5.26344 8.88946C4.08394 9.85696 3.14945 11.223 2.69945 12.627C1.86495 15.2409 2.95945 19.3499 2.96995 19.3874C2.9955 19.4831 3.00165 19.5829 2.98803 19.6809C2.97441 19.7789 2.9413 19.8733 2.89064 19.9583C2.83999 20.0434 2.77282 20.1174 2.6931 20.1761C2.61337 20.2347 2.52271 20.2769 2.42645 20.2999C2.23198 20.3517 2.02499 20.3251 1.84984 20.2261C1.67469 20.127 1.54532 19.9633 1.48945 19.7699C1.43945 19.5824 0.270453 15.1999 1.23445 12.179C2.28445 8.90546 5.52494 5.60547 10.4009 5.60547C12.6544 5.60547 14.7834 6.37147 16.5604 7.81796C17.9364 8.94296 19.0604 10.454 19.6484 11.9645C20.3959 13.893 20.1954 16.0574 19.1389 17.4714C18.4349 18.4144 17.4324 18.9074 16.3219 18.8539C13.4289 18.7089 12.9089 16.6894 12.5299 15.2164C12.1399 13.7055 11.8904 12.977 10.4009 12.977C9.58293 12.977 9.00843 13.202 8.65093 13.668C8.16343 14.3054 8.12544 15.3019 8.17944 16.0249C8.21488 16.5287 8.3003 17.0276 8.43443 17.5144C8.55343 17.8144 10.1029 21.6144 13.8139 22.5339C13.9098 22.5567 14.0003 22.5982 14.08 22.6562C14.1597 22.7142 14.2271 22.7874 14.2783 22.8717C14.3295 22.9559 14.3634 23.0495 14.3781 23.1469C14.3928 23.2444 14.388 23.3438 14.3639 23.4394C14.3186 23.6008 14.2218 23.7429 14.0882 23.8441C13.9546 23.9453 13.7915 24.0001 13.6239 23.9999Z" fill="#0085CA"/>
<path d="M7.66493 23.657C7.56088 23.6572 7.45784 23.6364 7.36198 23.596C7.26611 23.5555 7.17937 23.4962 7.10693 23.4215C5.24894 21.4715 4.19794 19.291 3.80244 16.5645V16.55C3.58044 14.745 3.90544 12.1895 5.49794 10.4325C6.67344 9.13599 8.32593 8.47699 10.4009 8.47699C12.8549 8.47699 14.7834 9.61799 15.9859 11.7715C16.8584 13.336 17.0314 14.895 17.0359 14.959C17.0451 15.0577 17.0347 15.1572 17.0053 15.2518C16.9759 15.3465 16.9282 15.4344 16.8648 15.5106C16.8014 15.5867 16.7236 15.6496 16.6358 15.6957C16.5481 15.7418 16.4521 15.7701 16.3534 15.779C16.1543 15.8006 15.9546 15.743 15.7975 15.6187C15.6405 15.4944 15.5386 15.3133 15.5139 15.1145C15.3822 14.1791 15.0795 13.2758 14.6209 12.45C13.6889 10.8055 12.2709 9.96949 10.3954 9.96949C8.77543 9.96949 7.50793 10.457 6.63594 11.4195C5.37894 12.807 5.13594 14.9445 5.30844 16.3585C5.65494 18.7695 6.58144 20.6875 8.21743 22.4015C8.28571 22.4725 8.33902 22.5565 8.37417 22.6486C8.40932 22.7406 8.42561 22.8388 8.42207 22.9373C8.41852 23.0357 8.39522 23.1325 8.35354 23.2218C8.31185 23.311 8.25265 23.391 8.17943 23.457C8.03844 23.5848 7.85522 23.656 7.66493 23.657Z" fill="#0085CA"/>
<path d="M16.2244 21.509C14.5994 21.509 13.2179 21.059 12.1124 20.1645C9.89139 18.375 9.64239 15.4605 9.63139 15.3375C9.61574 15.1356 9.68094 14.9357 9.81264 14.7819C9.94433 14.6281 10.1317 14.5329 10.3336 14.5172C10.5355 14.5016 10.7354 14.5668 10.8892 14.6985C11.043 14.8302 11.1382 15.0176 11.1539 15.2195C11.1594 15.2625 11.3814 17.6465 13.0934 19.0195C14.1064 19.8285 15.4604 20.1495 17.1289 19.962C17.3283 19.9378 17.5292 19.9935 17.6876 20.117C17.846 20.2405 17.9491 20.4217 17.9744 20.621C17.9853 20.7194 17.9765 20.819 17.9485 20.914C17.9205 21.0091 17.8739 21.0975 17.8113 21.1743C17.7488 21.2511 17.6715 21.3147 17.5842 21.3613C17.4968 21.408 17.401 21.4367 17.3024 21.446C16.9446 21.4877 16.5846 21.5087 16.2244 21.509ZM17.5084 1.6395C16.8744 1.227 14.6264 0 10.3994 0C5.9624 0 3.7089 1.3555 3.2104 1.7C3.17748 1.7202 3.14666 1.74365 3.1184 1.77C3.11542 1.77288 3.11154 1.77465 3.1074 1.775C3.0278 1.8445 2.96393 1.93017 2.92004 2.0263C2.87616 2.12244 2.85327 2.22682 2.85291 2.33249C2.85427 2.43155 2.87517 2.52937 2.91441 2.62034C2.95365 2.7113 3.01045 2.79363 3.08156 2.86261C3.15268 2.93158 3.2367 2.98585 3.32882 3.02229C3.42094 3.05874 3.51935 3.07665 3.6184 3.07499C3.77717 3.07489 3.9321 3.02621 4.0624 2.93549C4.0839 2.91949 6.0234 1.4945 10.4009 1.4945C14.7784 1.4945 16.7284 2.91449 16.7494 2.92499C16.8825 3.02371 17.0442 3.07637 17.2099 3.07499C17.309 3.07651 17.4075 3.05844 17.4996 3.02181C17.5917 2.98518 17.6757 2.93072 17.7468 2.86154C17.8178 2.79237 17.8745 2.70985 17.9135 2.61872C17.9526 2.52759 17.9733 2.42964 17.9744 2.33049C17.9744 2.18199 17.9301 2.03686 17.847 1.91373C17.764 1.79061 17.6461 1.69511 17.5084 1.6395Z" fill="#0085CA"/>
</svg>
