<svg width="19" height="26" viewBox="0 0 19 26" fill="none" xmlns="http://www.w3.org/2000/svg">
<path d="M3.76923 6.53846C5.29863 6.53846 6.53846 5.29863 6.53846 3.76923C6.53846 2.23983 5.29863 1 3.76923 1C2.23983 1 1 2.23983 1 3.76923C1 5.29863 2.23983 6.53846 3.76923 6.53846Z" stroke="#0085CA" stroke-width="2" stroke-linecap="round" stroke-linejoin="round"/>
<path d="M3.76923 25C5.29863 25 6.53846 23.7602 6.53846 22.2308C6.53846 20.7014 5.29863 19.4615 3.76923 19.4615C2.23983 19.4615 1 20.7014 1 22.2308C1 23.7602 2.23983 25 3.76923 25Z" stroke="#0085CA" stroke-width="2" stroke-linecap="round" stroke-linejoin="round"/>
<path d="M3.76923 19.4615V6.53845" stroke="#0085CA" stroke-width="2" stroke-linecap="round" stroke-linejoin="round"/>
<path d="M14.8462 10.2308C16.3756 10.2308 17.6154 8.99096 17.6154 7.46155C17.6154 5.93215 16.3756 4.69232 14.8462 4.69232C13.3168 4.69232 12.0769 5.93215 12.0769 7.46155C12.0769 8.99096 13.3168 10.2308 14.8462 10.2308Z" stroke="#0085CA" stroke-width="2" stroke-linecap="round" stroke-linejoin="round"/>
<path d="M14.8461 10.2308C14.8461 17.6154 3.76923 13 3.76923 19.4615" stroke="#0085CA" stroke-width="2" stroke-linecap="round" stroke-linejoin="round"/>
</svg>
