<svg width="25" height="22" viewBox="0 0 25 22" fill="none" xmlns="http://www.w3.org/2000/svg">
<path d="M22.5342 13.7003C22.5547 13.5771 22.565 13.4505 22.565 13.3238C22.565 12.0778 21.5517 11.0612 20.3023 11.0612C19.0529 11.0612 18.0397 12.0744 18.0397 13.3238C18.0397 13.4505 18.05 13.5771 18.0705 13.7003H15.7017V10.6812C15.7017 10.5169 15.6162 10.3629 15.4724 10.2773C15.332 10.1917 15.154 10.1883 15.0103 10.267C14.8152 10.3697 14.6064 10.4245 14.3873 10.4245C13.6582 10.4245 13.066 9.83229 13.066 9.10317C13.066 8.37406 13.6582 7.78187 14.3873 7.78187C14.6064 7.78187 14.8186 7.83322 15.0103 7.93933C15.1575 8.01806 15.332 8.01464 15.4724 7.92906C15.6127 7.84349 15.7017 7.68945 15.7017 7.52514V2.49666C16.1467 2.63701 16.5883 2.7842 17.0265 2.94166C18.9673 3.63996 20.8261 4.506 22.3664 5.9163C23.6569 7.09384 24.4237 8.41172 24.742 10.2396C24.9166 11.2357 24.9166 12.2524 24.7865 13.2588C24.766 13.406 24.7455 13.5566 24.7215 13.7038H22.5342V13.7003ZM21.8804 14.6383C21.7161 14.6383 21.562 14.5527 21.4764 14.4089C21.3909 14.2686 21.3874 14.0906 21.4662 13.9468C21.5689 13.7517 21.6236 13.5429 21.6236 13.3238C21.6236 12.5947 21.0314 12.0025 20.3023 12.0025C19.5732 12.0025 18.981 12.5947 18.981 13.3238C18.981 13.5429 19.0324 13.7551 19.1385 13.9468C19.2172 14.094 19.2138 14.2686 19.1282 14.4089C19.0426 14.5493 18.8886 14.6383 18.7243 14.6383H15.2328C14.9726 14.6383 14.7638 14.4295 14.7638 14.1693V11.3282C14.6406 11.3487 14.5139 11.359 14.3873 11.359C13.1413 11.359 12.1246 10.3457 12.1246 9.09633C12.1246 7.84691 13.1379 6.83368 14.3873 6.83368C14.5139 6.83368 14.6406 6.84395 14.7638 6.86449V2.20912C12.7476 1.63747 10.6869 1.24724 8.59203 1.02474C6.66826 0.822782 4.78558 0.942589 2.97136 1.66828C1.61582 2.20912 0.852478 3.35927 0.879863 4.81407C0.893555 5.66299 1.12632 6.45715 1.44809 7.23418C2.17036 8.97994 3.23835 10.5169 4.41589 11.9717C6.50396 14.5561 8.85218 16.8906 11.4503 18.9719C12.7202 19.9885 14.0381 20.923 15.5922 21.4673C18.5292 22.4908 20.7816 21.6932 22.3904 19.5059C23.5132 17.9758 24.1841 16.2882 24.5504 14.6417H21.8804V14.6383Z" fill="#0085CD"/>
</svg>
