<?xml version="1.0" encoding="utf-8"?>
<!-- Generator: Adobe Illustrator 25.0.0, SVG Export Plug-In . SVG Version: 6.00 Build 0)  -->
<svg version="1.1" id="Camada_1" xmlns="http://www.w3.org/2000/svg" xmlns:xlink="http://www.w3.org/1999/xlink" x="0px" y="0px"
	 viewBox="0 0 1920 652.6" style="enable-background:new 0 0 1920 652.6;" xml:space="preserve">
<style type="text/css">
	.st0{fill:#FFFFFF;}
	.st1{fill:#0085CD;}
	.st2{fill:#808080;}
</style>
<g id="Logo_oficial_2_">
	<path class="st2" d="M1162.7,414c0,2.9-2.9,6.1-6.1,6.2l-175.2,0.2c-3.4,0-6.2-2.8-6.2-6.2l0-49.2c0-15,3.3-30.7,14.7-41.3
		c11.8-10.9,28.2-13.8,43.7-13.8l70.4-0.1c7,0,13.7-1.6,19.1-6.3c5.4-4.8,7.3-11.6,7.2-18.7c0-6.9-1.8-13.8-7-18.6
		c-5.1-5-12.1-6.6-19.1-6.6l-183.8,0.2l0.1,154.7c0,3.4-2.8,6.2-6.1,6.2l-18.5,0c-3.3-0.2-6.2-2.6-6.2-6.2l-0.1-154.7l-67.7,0.1
		c-3.4,0-6.2-2.8-6.2-6.1l0-18.5c0-3.4,2.8-6.2,6.2-6.2l282.6-0.2c8.4,0,17,1,25,3.9c6.8,2.5,13,5.9,18.2,10.9
		c5,4.7,8.6,10.2,11.2,16.6c2.5,6.2,3.5,12.7,3.6,19.4l0,3.5c-0.2,6.9-1.3,15.1-3.9,21.6c-2.6,6.4-6.4,12.2-11.4,16.9
		c-5.2,4.9-11.3,8.7-18,11.2c-7.8,2.9-16.2,3.9-24.4,3.9l-70.9,0.1c-17.5,0-29.6,6-29.5,25l0,27.2l152-0.1c3.8,0.1,6.2,3.7,6.2,7.3
		L1162.7,414L1162.7,414z M1455.6,281.6c-10.2,0-29.3,2.5-38.2,20.5v-13.6c0-3.8-3-6.8-6.8-6.8h-15.5c-3.8,0-6.8,3-6.8,6.8v124.9
		c0,3.8,3,6.8,6.8,6.8h17.8c3.8,0,6.8-3,6.8-6.8v-64.5c0-22.8,15.6-38.3,35.5-38.2c3.8,0,7-3,7-6.8v-15.5
		C1462.3,284.7,1459.3,281.7,1455.6,281.6z M1591.2,400.1c12.7-13.4,19-29.8,19-49c0-19.2-6.3-35.6-19-49.1
		c-12.7-13.5-29.3-20.3-49.9-20.3c-20.4,0-37,6.8-49.6,20.3c-12.7,13.5-19,29.9-19,49.1c0,19.2,6.3,35.6,19,49
		c12.7,13.4,29.2,20.2,49.6,20.2C1561.9,420.3,1578.5,413.6,1591.2,400.1z M1513.8,320.3c7.2-7.8,16.4-11.7,27.4-11.7
		c11.2,0,20.5,3.9,27.7,11.7c7.2,7.8,10.8,18.1,10.8,30.9c0,12.6-3.6,22.8-10.8,30.6c-7.2,7.8-16.5,11.7-27.7,11.7
		c-11.1,0-20.2-3.9-27.4-11.7c-7.2-7.8-10.8-18-10.8-30.6C1503,338.4,1506.6,328.1,1513.8,320.3z M1660.8,360.6v-72.3
		c0-3.8-3-6.8-6.8-6.8h-17.8c-3.8,0-6.8,3-6.8,6.8V359c0,18.9,4.8,33.8,14.4,44.8c9.6,11,25,16.5,46.1,16.5
		c21.1,0,36.5-5.5,46.1-16.5c9.6-11,14.4-25.9,14.4-44.8v-70.7c0-3.8-3-6.8-6.8-6.8h-17.8c-3.8,0-6.8,3-6.8,6.8v72.3
		c0,21.3-9.7,32-29.1,32C1670.5,392.5,1660.8,381.9,1660.8,360.6z M1845.8,420c19.7,0,35.3-6.6,46.7-19.7
		c11.4-13.2,17.1-29.6,17.1-49.3c0-19.7-5.7-36.2-17.1-49.4c-11.4-13.2-26.9-19.9-46.7-19.9c-21.2,0-36.6,7.3-46.3,21.9v-15.1
		c0-3.8-3-6.8-6.8-6.8h-15.5c-3.8,0-6.8,3-6.8,6.8v179.9c0,3.8,3,6.8,6.8,6.8h17.9c3.8,0,6.8-3,6.8-6.8v-68.8
		C1811.1,413.2,1825.7,420,1845.8,420z M1811.3,320.1c7-8.1,16.4-12.1,28.2-12.1c11.6,0,21,4.1,28,12.2c7.1,8.1,10.6,18.4,10.6,30.8
		c0,12.1-3.5,22.1-10.6,30.2c-7.1,8.1-16.4,12.1-28,12.1c-11.8,0-21.2-4-28.2-12c-7-8-10.4-18.1-10.4-30.3
		C1800.9,338.4,1804.3,328.1,1811.3,320.1z M1278.5,323.1v15c0,3.8,3,6.8,6.8,6.8h39.5c-2.8,14.7-9.3,26-19.6,33.7
		c-10.3,7.7-23.3,11.6-38.9,11.6c-17.3,0-31.5-6-42.6-18.1c-11.1-12-16.6-27.9-16.6-47.4c0-19.9,5.5-35.9,16.6-47.8
		c11.1-12,25.8-17.9,44.2-17.9c13.5,0,25.3,3.3,35.5,10c8.8,5.8,15.1,13.6,18.7,23.2c1,2.7,3.5,4.4,6.4,4.4h20.4
		c4.6,0,7.9-4.5,6.5-8.8c-5.1-16.7-14.7-30.2-28.7-40.7c-16.5-12.2-36-18.3-58.7-18.3c-27,0-49.5,9-67.3,26.9
		c-17.9,17.9-26.8,40.9-26.8,69c0,28.2,8.7,51.3,26.1,69c17.4,17.8,39.5,26.6,66.2,26.6c25.5,0,46.8-8.1,64-24.4v17.6
		c0,3.8,3,6.8,6.8,6.8h15c3.8,0,6.8-3,6.8-6.8v-90.4c0-3.8-3-6.8-6.8-6.8h-66.5C1281.6,316.3,1278.5,319.3,1278.5,323.1z"/>
	<g>
		<path class="st1" d="M643.1,392.8c0.6-3.6,0.9-7.3,0.9-11c0-36.4-29.6-66.1-66.1-66.1c-36.4,0-66.1,29.6-66.1,66.1
			c0,3.7,0.3,7.4,0.9,11h-69.2v-88.2c0-4.8-2.5-9.3-6.7-11.8c-4.1-2.5-9.3-2.6-13.5-0.3c-5.7,3-11.8,4.6-18.2,4.6
			c-21.3,0-38.6-17.3-38.6-38.6c0-21.3,17.3-38.6,38.6-38.6c6.4,0,12.6,1.5,18.2,4.6c4.3,2.3,9.4,2.2,13.5-0.3
			c4.1-2.5,6.7-7,6.7-11.8V65.5c13,4.1,25.9,8.4,38.7,13c56.7,20.4,111,45.7,156,86.9c37.7,34.4,60.1,72.9,69.4,126.3
			c5.1,29.1,5.1,58.8,1.3,88.2c-0.6,4.3-1.2,8.7-1.9,13H643.1z M624.1,420.2c-4.8,0-9.3-2.5-11.8-6.7c-2.5-4.1-2.6-9.3-0.3-13.5
			c3-5.7,4.6-11.8,4.6-18.2c0-21.3-17.3-38.6-38.6-38.6c-21.3,0-38.6,17.3-38.6,38.6c0,6.4,1.5,12.6,4.6,18.2
			c2.3,4.3,2.2,9.4-0.3,13.5c-2.5,4.1-7,6.7-11.8,6.7h-102c-7.6,0-13.7-6.1-13.7-13.7v-83c-3.6,0.6-7.3,0.9-11,0.9
			c-36.4,0-66.1-29.6-66.1-66.1s29.6-66.1,66.1-66.1c3.7,0,7.4,0.3,11,0.9v-136C357.2,40.5,297,29.1,235.8,22.6
			c-56.2-6-111.1-2.5-164.2,18.7C32,57.1,9.7,90.7,10.5,133.2c0.4,24.8,7.2,48,16.6,70.7c21.1,51,52.3,95.9,86.7,138.4
			c61,75.5,129.6,143.7,205.5,204.5c37.1,29.7,75.6,57,121,72.9c85.8,29.9,151.6,6.6,198.6-57.3c32.8-44.7,52.4-94,63.1-142.1H624.1
			z"/>
	</g>
</g>
</svg>
