<svg version="1.1" id="Camada_1" xmlns="http://www.w3.org/2000/svg" xmlns:xlink="http://www.w3.org/1999/xlink" x="0px" y="0px"
	 viewBox="0 0 748.9 652.6" style="enable-background:new 0 0 748.9 652.6;" xml:space="preserve">
<style type="text/css">
	.st0{fill:#FFFFFF;}
	.st1{fill:#0085CD;}
	.st2{fill:#808080;}
</style>
<g id="Logo_oficial_1_">
	<g>
		<path class="st1" d="M656.5,392.8c0.6-3.6,0.9-7.3,0.9-11c0-36.4-29.6-66.1-66.1-66.1s-66.1,29.6-66.1,66.1c0,3.7,0.3,7.4,0.9,11
			h-69.2v-88.2c0-4.8-2.5-9.3-6.7-11.8c-4.1-2.5-9.3-2.6-13.5-0.3c-5.7,3-11.8,4.6-18.2,4.6c-21.3,0-38.6-17.3-38.6-38.6
			c0-21.3,17.3-38.6,38.6-38.6c6.4,0,12.6,1.5,18.2,4.6c4.3,2.3,9.4,2.2,13.5-0.3c4.1-2.5,6.7-7,6.7-11.8V65.5
			c13,4.1,25.9,8.4,38.7,13c56.7,20.4,111,45.7,156,86.9c37.7,34.4,60.1,72.9,69.4,126.3c5.1,29.1,5.1,58.8,1.3,88.2
			c-0.6,4.3-1.2,8.7-1.9,13H656.5z M637.4,420.2c-4.8,0-9.3-2.5-11.8-6.7c-2.5-4.1-2.6-9.3-0.3-13.5c3-5.7,4.6-11.8,4.6-18.2
			c0-21.3-17.3-38.6-38.6-38.6c-21.3,0-38.6,17.3-38.6,38.6c0,6.4,1.5,12.6,4.6,18.2c2.3,4.3,2.2,9.4-0.3,13.5
			c-2.5,4.1-7,6.7-11.8,6.7h-102c-7.6,0-13.7-6.1-13.7-13.7v-83c-3.6,0.6-7.3,0.9-11,0.9c-36.4,0-66.1-29.6-66.1-66.1
			s29.6-66.1,66.1-66.1c3.7,0,7.4,0.3,11,0.9v-136c-58.9-16.7-119.1-28.1-180.3-34.6C193,16.6,138,20.1,85,41.3
			c-39.6,15.8-61.9,49.4-61.1,91.9c0.4,24.8,7.2,48,16.6,70.7c21.1,51,52.3,95.9,86.7,138.4c61,75.5,129.6,143.7,205.5,204.5
			c37.1,29.7,75.6,57,121,72.9c85.8,29.9,151.6,6.6,198.6-57.3c32.8-44.7,52.4-94,63.1-142.1H637.4z"/>
	</g>
</g>
</svg>
