<svg width="33" height="33" viewBox="0 0 33 33" fill="none" xmlns="http://www.w3.org/2000/svg">
<path d="M30.9416 23.7121V28.0777C30.9433 28.483 30.8603 28.8842 30.6979 29.2555C30.5355 29.6269 30.2974 29.9602 29.9988 30.2342C29.7001 30.5082 29.3475 30.7168 28.9636 30.8466C28.5797 30.9764 28.1729 31.0247 27.7692 30.9882C23.2913 30.5016 18.9899 28.9715 15.2107 26.5207C11.6946 24.2864 8.7136 21.3054 6.47934 17.7893C4.01999 13.9929 2.48948 9.67061 2.01181 5.17253C1.97545 4.77011 2.02327 4.36453 2.15224 3.98161C2.28121 3.59869 2.4885 3.24682 2.76091 2.9484C3.03332 2.64998 3.36488 2.41155 3.73449 2.24829C4.1041 2.08503 4.50365 2.00052 4.9077 2.00014H9.27337C9.9796 1.99319 10.6643 2.24328 11.1997 2.70379C11.7352 3.1643 12.085 3.80381 12.1838 4.50312C12.3681 5.90024 12.7098 7.27202 13.2025 8.5923C13.3983 9.11316 13.4406 9.67923 13.3246 10.2234C13.2085 10.7676 12.9389 11.2672 12.5476 11.6628L10.6995 13.511C12.7711 17.1542 15.7876 20.1707 19.4308 22.2423L21.279 20.3942C21.6746 20.0029 22.1741 19.7333 22.7183 19.6172C23.2625 19.5011 23.8286 19.5435 24.3495 19.7393C25.6698 20.232 27.0415 20.5737 28.4386 20.758C29.1455 20.8577 29.7911 21.2138 30.2526 21.7584C30.7141 22.3031 30.9593 22.9984 30.9416 23.7121Z" stroke="#0085CA" stroke-width="3" stroke-linecap="round" stroke-linejoin="round"/>
</svg>
