<svg xmlns="http://www.w3.org/2000/svg" width="24" height="21" viewBox="0 0 24 21" fill="none" >
<path d="M633.5 373.8C634.1 370.2 634.4 366.5 634.4 362.8C634.4 326.4 604.8 296.7 568.3 296.7C531.8 296.7 502.2 326.3 502.2 362.8C502.2 366.5 502.5 370.2 503.1 373.8H433.9V285.6C433.9 280.8 431.4 276.3 427.2 273.8C423.1 271.3 417.9 271.2 413.7 273.5C408 276.5 401.9 278.1 395.5 278.1C374.2 278.1 356.9 260.8 356.9 239.5C356.9 218.2 374.2 200.9 395.5 200.9C401.9 200.9 408.1 202.4 413.7 205.5C418 207.8 423.1 207.7 427.2 205.2C431.3 202.7 433.9 198.2 433.9 193.4V46.4999C446.9 50.5999 459.8 54.8999 472.6 59.4999C529.3 79.8999 583.6 105.2 628.6 146.4C666.3 180.8 688.7 219.3 698 272.7C703.1 301.8 703.1 331.5 699.3 360.9C698.7 365.2 698.1 369.6 697.4 373.9H633.5V373.8ZM614.4 401.2C609.6 401.2 605.1 398.7 602.6 394.5C600.1 390.4 600 385.2 602.3 381C605.3 375.3 606.9 369.2 606.9 362.8C606.9 341.5 589.6 324.2 568.3 324.2C547 324.2 529.7 341.5 529.7 362.8C529.7 369.2 531.2 375.4 534.3 381C536.6 385.3 536.5 390.4 534 394.5C531.5 398.6 527 401.2 522.2 401.2H420.2C412.6 401.2 406.5 395.1 406.5 387.5V304.5C402.9 305.1 399.2 305.4 395.5 305.4C359.1 305.4 329.4 275.8 329.4 239.3C329.4 202.8 359 173.2 395.5 173.2C399.2 173.2 402.9 173.5 406.5 174.1V38.0999C347.6 21.3999 287.4 9.99994 226.2 3.49994C170 -2.40006 115 1.09994 62 22.2999C22.4 38.0999 0.0999598 71.6999 0.89996 114.2C1.29996 139 8.09996 162.2 17.5 184.9C38.6 235.9 69.8 280.8 104.2 323.3C165.2 398.8 233.8 467 309.7 527.8C346.8 557.5 385.3 584.8 430.7 600.7C516.5 630.6 582.3 607.3 629.3 543.4C662.1 498.7 681.7 449.4 692.4 401.3H614.4V401.2Z" fill="#0085CD"/>
</svg>
